<svg width="310" height="382" viewBox="0 0 310 382" fill="none" xmlns="http://www.w3.org/2000/svg">
<path d="M15.983 25.7609C18.6813 25.7609 20.2809 24.4338 20.2809 22.2014C20.2809 20.5139 19.1735 19.301 17.4508 19.0812V19.0109C18.6725 18.7912 19.6393 17.5607 19.6393 16.2424C19.6393 14.3439 18.1715 13.0783 16.0006 13.0783H11.193V25.7609H15.983ZM12.775 14.4758H15.6403C17.1783 14.4758 18.0397 15.1701 18.0397 16.4269C18.0397 17.798 17.0201 18.5451 15.1481 18.5451H12.775V14.4758ZM12.775 24.3635V19.9074H15.5963C17.6178 19.9074 18.6549 20.6545 18.6549 22.1223C18.6549 23.59 17.653 24.3635 15.7457 24.3635H12.775ZM29.8258 25.7609H31.3375V16.6203H29.8258V25.7609ZM22.0035 25.7609H25.2467C27.3385 25.7609 28.6832 24.5568 28.6832 22.6496C28.6832 20.7424 27.3385 19.5383 25.2467 19.5383H23.5328V16.6203H22.0035V25.7609ZM25.2203 20.7951C26.3981 20.7951 27.1715 21.5246 27.1715 22.6496C27.1715 23.7658 26.4069 24.5041 25.2203 24.5041H23.5328V20.7951H25.2203ZM37.402 25.9191C40.0475 25.9191 41.6735 24.1525 41.6735 21.2785C41.6735 18.5539 40.1002 16.8137 37.6305 16.8137C36.2242 16.8137 35.0817 17.3762 34.484 18.4572H34.4137C34.7828 15.7238 35.5387 14.6076 38.0787 14.5109L38.7555 14.4846C39.8102 14.4406 40.777 14.2121 41.067 13.9484V12.6125C40.5485 12.8849 39.5641 13.0607 38.6852 13.1047L38.0084 13.131C34.4576 13.2629 33.1217 15.3635 33.1217 20.4084C33.1217 24.0383 34.5983 25.9191 37.402 25.9191ZM37.402 24.5656C35.6793 24.5656 34.6862 23.3791 34.6862 21.2785C34.6862 19.2834 35.6793 18.1496 37.402 18.1496C39.1158 18.1496 40.109 19.2834 40.109 21.2785C40.109 23.3791 39.1158 24.5656 37.402 24.5656ZM44.8903 25.7609L49.443 18.967H49.5133V25.7609H51.0426V16.6203H49.5309L44.9781 23.4142H44.9078V16.6203H43.3785V25.7609H44.8903ZM57.6344 16.4621C56.3073 16.4621 55.2438 17.1389 54.6813 18.1672H54.6461V16.6203H53.1959V28.8107H54.7252V24.2756H54.7604C55.3053 25.2775 56.36 25.9191 57.6696 25.9191C59.9723 25.9191 61.5455 24.0558 61.5455 21.1906C61.5455 18.3254 59.9635 16.4621 57.6344 16.4621ZM57.3356 24.5744C55.7711 24.5744 54.7164 23.2297 54.7164 21.1906C54.7164 19.1603 55.7711 17.8068 57.3356 17.8068C58.9615 17.8068 59.9811 19.1252 59.9811 21.1906C59.9811 23.2648 58.9615 24.5744 57.3356 24.5744ZM65.9401 25.9191C67.1705 25.9191 68.3307 25.2336 68.8756 24.1877H68.9108V25.7609H70.361V19.4416C70.361 17.6223 69.0074 16.4621 66.8629 16.4621C64.7008 16.4621 63.3473 17.675 63.2418 19.257H64.7184C64.9117 18.3605 65.65 17.8068 66.8278 17.8068C68.0934 17.8068 68.8317 18.4748 68.8317 19.591V20.3557L66.2125 20.5051C64.1031 20.6281 62.899 21.6125 62.899 23.1769C62.899 24.8205 64.1207 25.9191 65.9401 25.9191ZM66.2828 24.6183C65.1842 24.6183 64.4547 24.0471 64.4547 23.1769C64.4547 22.3156 65.1578 21.7707 66.3883 21.6916L68.8317 21.5422V22.2892C68.8317 23.6076 67.7242 24.6183 66.2828 24.6183ZM78.5436 23.1418C78.2887 24.0031 77.4362 24.592 76.276 24.592C74.6324 24.592 73.6041 23.4406 73.6041 21.6916V21.6037H80.1608V21.0236C80.1608 18.2551 78.6403 16.4621 76.1705 16.4621C73.6481 16.4621 72.0309 18.3869 72.0309 21.2258C72.0309 24.0998 73.6217 25.9191 76.2408 25.9191C78.236 25.9191 79.7828 24.7414 80.0465 23.1418H78.5436ZM76.1442 17.7892C77.5856 17.7892 78.5436 18.8791 78.5787 20.4084H73.6129C73.7096 18.8879 74.7115 17.7892 76.1442 17.7892ZM88.2115 16.6203H80.7936V17.8771H83.7379V25.7609H85.2672V17.8771H88.2115V16.6203ZM95.524 23.1418C95.2692 24.0031 94.4166 24.592 93.2565 24.592C91.6129 24.592 90.5846 23.4406 90.5846 21.6916V21.6037H97.1412V21.0236C97.1412 18.2551 95.6207 16.4621 93.151 16.4621C90.6285 16.4621 89.0114 18.3869 89.0114 21.2258C89.0114 24.0998 90.6022 25.9191 93.2213 25.9191C95.2164 25.9191 96.7633 24.7414 97.027 23.1418H95.524ZM93.1246 17.7892C94.566 17.7892 95.524 18.8791 95.5592 20.4084H90.5934C90.6901 18.8879 91.692 17.7892 93.1246 17.7892ZM108.462 25.7609H110V16.6203H102.547V25.7609H104.076V17.8771H108.462V25.7609ZM116.591 16.4621C115.264 16.4621 114.201 17.1389 113.638 18.1672H113.603V16.6203H112.153V28.8107H113.682V24.2756H113.717C114.262 25.2775 115.317 25.9191 116.627 25.9191C118.929 25.9191 120.503 24.0558 120.503 21.1906C120.503 18.3254 118.921 16.4621 116.591 16.4621ZM116.293 24.5744C114.728 24.5744 113.673 23.2297 113.673 21.1906C113.673 19.1603 114.728 17.8068 116.293 17.8068C117.919 17.8068 118.938 19.1252 118.938 21.1906C118.938 23.2648 117.919 24.5744 116.293 24.5744ZM126.013 25.9191C128.536 25.9191 130.241 24.0998 130.241 21.1906C130.241 18.2726 128.536 16.4621 126.013 16.4621C123.482 16.4621 121.777 18.2726 121.777 21.1906C121.777 24.0998 123.482 25.9191 126.013 25.9191ZM126.013 24.5744C124.396 24.5744 123.333 23.3439 123.333 21.1906C123.333 19.0373 124.396 17.8068 126.013 17.8068C127.63 17.8068 128.685 19.0373 128.685 21.1906C128.685 23.3439 127.63 24.5744 126.013 24.5744ZM137.835 17.8771V16.6203H131.955V25.7609H133.484V17.8771H137.835ZM143.943 16.4621C142.616 16.4621 141.552 17.1389 140.99 18.1672H140.955V16.6203H139.505V28.8107H141.034V24.2756H141.069C141.614 25.2775 142.669 25.9191 143.978 25.9191C146.281 25.9191 147.854 24.0558 147.854 21.1906C147.854 18.3254 146.272 16.4621 143.943 16.4621ZM143.644 24.5744C142.08 24.5744 141.025 23.2297 141.025 21.1906C141.025 19.1603 142.08 17.8068 143.644 17.8068C145.27 17.8068 146.29 19.1252 146.29 21.1906C146.29 23.2648 145.27 24.5744 143.644 24.5744ZM152.249 25.9191C153.479 25.9191 154.639 25.2336 155.184 24.1877H155.219V25.7609H156.67V19.4416C156.67 17.6223 155.316 16.4621 153.172 16.4621C151.009 16.4621 149.656 17.675 149.55 19.257H151.027C151.22 18.3605 151.959 17.8068 153.136 17.8068C154.402 17.8068 155.14 18.4748 155.14 19.591V20.3557L152.521 20.5051C150.412 20.6281 149.208 21.6125 149.208 23.1769C149.208 24.8205 150.429 25.9191 152.249 25.9191ZM152.591 24.6183C151.493 24.6183 150.763 24.0471 150.763 23.1769C150.763 22.3156 151.466 21.7707 152.697 21.6916L155.14 21.5422V22.2892C155.14 23.6076 154.033 24.6183 152.591 24.6183ZM160.291 25.7609V19.2746H160.352L163.305 25.4973H164.474L167.427 19.2746H167.489V25.7609H169.009V16.6203H167.225L163.956 23.7394H163.885L160.633 16.6203H158.779V25.7609H160.291ZM172.666 25.7609V19.2746H172.727L175.68 25.4973H176.849L179.802 19.2746H179.864V25.7609H181.384V16.6203H179.6L176.331 23.7394H176.26L173.008 16.6203H171.154V25.7609H172.666ZM184.302 29.1799C185.955 29.1799 186.711 28.5383 187.493 26.4025L191.088 16.6203H189.479L186.948 24.2316H186.922L184.39 16.6203H182.755L186.13 25.7697L185.92 26.4113C185.568 27.4748 185.093 27.8879 184.241 27.8879C184.047 27.8879 183.81 27.8791 183.643 27.8439V29.1271C183.81 29.1623 184.118 29.1799 184.302 29.1799Z" fill="white"/>
<path d="M23.2164 38.3468C16.027 38.3468 11.527 43.4093 11.527 51.4601C11.527 59.5109 16.027 64.5558 23.2164 64.5558C30.4059 64.5558 34.9059 59.5109 34.9059 51.4601C34.9059 43.4093 30.4059 38.3468 23.2164 38.3468ZM23.2164 41.2648C28.402 41.2648 31.6539 45.2023 31.6539 51.4601C31.6539 57.7003 28.402 61.6378 23.2164 61.6378C18.0309 61.6378 14.7789 57.7003 14.7789 51.4601C14.7789 45.2023 18.0309 41.2648 23.2164 41.2648ZM50.5328 64.1339H53.609V45.8527H38.7028V64.1339H41.7614V48.3663H50.5328V64.1339ZM62.8199 56.0656L63.3824 48.3663H69.5348V64.1339H72.5934V45.8527H60.6227L59.9196 55.9952C59.691 59.3527 59.0055 61.4796 57.1949 61.4796C56.7555 61.4796 56.4215 61.3917 56.2633 61.339V64.0988C56.4742 64.1866 56.8258 64.2921 57.3531 64.2921C61.2028 64.2921 62.4508 61.1105 62.8199 56.0656ZM82.2789 64.4503C84.7399 64.4503 87.0602 63.0792 88.15 60.9874H88.2203V64.1339H91.1207V51.4952C91.1207 47.8566 88.4137 45.5363 84.1246 45.5363C79.8004 45.5363 77.0934 47.962 76.8824 51.1261H79.8356C80.2223 49.3331 81.6989 48.2257 84.0543 48.2257C86.5856 48.2257 88.0621 49.5616 88.0621 51.7941V53.3234L82.8239 53.6222C78.6051 53.8683 76.1969 55.837 76.1969 58.9659C76.1969 62.2531 78.6403 64.4503 82.2789 64.4503ZM82.9645 61.8488C80.7672 61.8488 79.3082 60.7062 79.3082 58.9659C79.3082 57.2433 80.7145 56.1534 83.1754 55.9952L88.0621 55.6964V57.1906C88.0621 59.8273 85.8473 61.8488 82.9645 61.8488ZM109.279 64.1339V45.8527H106.22V53.5519C105.359 54.4132 103.759 54.9933 101.72 54.9933C99.1891 54.9933 97.941 53.464 97.941 51.0734V45.8527H94.8824V51.1085C94.8824 55.0109 97.1852 57.6652 101.615 57.6652C103.548 57.6652 104.92 57.2433 105.957 56.5577H106.22V64.1339H109.279ZM116.609 64.1339L125.714 50.546H125.855V64.1339H128.914V45.8527H125.89L116.785 59.4406H116.644V45.8527H113.586V64.1339H116.609ZM141.078 64.1339C144.963 64.1339 147.353 62.1124 147.353 58.8781C147.353 56.6456 145.841 55.0109 143.539 54.6945V54.5538C145.226 54.2023 146.545 52.462 146.545 50.5812C146.545 47.6456 144.453 45.8527 141.025 45.8527H133.203V64.1339H141.078ZM136.261 48.3312H140.568C142.484 48.3312 143.521 49.2452 143.521 50.8976C143.521 52.673 142.414 53.5343 140.111 53.5343H136.261V48.3312ZM136.261 55.9952H140.357C143.029 55.9952 144.312 56.9093 144.312 58.8077C144.312 60.6534 143.117 61.6554 140.902 61.6554H136.261V55.9952ZM156.213 64.4503C158.673 64.4503 160.994 63.0792 162.084 60.9874H162.154V64.1339H165.054V51.4952C165.054 47.8566 162.347 45.5363 158.058 45.5363C153.734 45.5363 151.027 47.962 150.816 51.1261H153.769C154.156 49.3331 155.632 48.2257 157.988 48.2257C160.519 48.2257 161.996 49.5616 161.996 51.7941V53.3234L156.757 53.6222C152.539 53.8683 150.13 55.837 150.13 58.9659C150.13 62.2531 152.574 64.4503 156.213 64.4503ZM156.898 61.8488C154.701 61.8488 153.242 60.7062 153.242 58.9659C153.242 57.2433 154.648 56.1534 157.109 55.9952L161.996 55.6964V57.1906C161.996 59.8273 159.781 61.8488 156.898 61.8488ZM181.42 58.8956C180.91 60.6183 179.205 61.796 176.884 61.796C173.597 61.796 171.541 59.4933 171.541 55.9952V55.8195H184.654V54.6593C184.654 49.1222 181.613 45.5363 176.673 45.5363C171.629 45.5363 168.394 49.3859 168.394 55.0636C168.394 60.8116 171.576 64.4503 176.814 64.4503C180.804 64.4503 183.898 62.0948 184.425 58.8956H181.42ZM176.621 48.1906C179.504 48.1906 181.42 50.3702 181.49 53.4288H171.558C171.752 50.3878 173.755 48.1906 176.621 48.1906ZM200.755 45.8527H185.92V48.3663H191.808V64.1339H194.867V48.3663H200.755V45.8527ZM215.38 58.8956C214.871 60.6183 213.166 61.796 210.845 61.796C207.558 61.796 205.502 59.4933 205.502 55.9952V55.8195H218.615V54.6593C218.615 49.1222 215.574 45.5363 210.634 45.5363C205.589 45.5363 202.355 49.3859 202.355 55.0636C202.355 60.8116 205.537 64.4503 210.775 64.4503C214.765 64.4503 217.859 62.0948 218.386 58.8956H215.38ZM210.582 48.1906C213.464 48.1906 215.38 50.3702 215.451 53.4288H205.519C205.713 50.3878 207.716 48.1906 210.582 48.1906Z" fill="#036CCA"/>
<path d="M12.775 100.643V94.7984H11.193V107.481H12.775V101.32H12.8453L18.6989 107.481H20.8698L14.5153 100.863L20.2809 94.7984H18.2946L12.8453 100.643H12.775ZM24.5612 107.639C25.7916 107.639 26.9518 106.954 27.4967 105.908H27.5319V107.481H28.9821V101.162C28.9821 99.3423 27.6285 98.1822 25.484 98.1822C23.3219 98.1822 21.9684 99.3951 21.8629 100.977H23.3395C23.5328 100.081 24.2711 99.5269 25.4489 99.5269C26.7145 99.5269 27.4528 100.195 27.4528 101.311V102.076L24.8336 102.225C22.7242 102.348 21.5201 103.333 21.5201 104.897C21.5201 106.541 22.7418 107.639 24.5612 107.639ZM24.9039 106.338C23.8053 106.338 23.0758 105.767 23.0758 104.897C23.0758 104.036 23.7789 103.491 25.0094 103.412L27.4528 103.262V104.009C27.4528 105.328 26.3453 106.338 24.9039 106.338ZM32.691 103.086L36.6198 107.481H38.5885L34.2115 102.665L38.4655 98.3404H36.5758L32.691 102.383H32.6207V98.3404H31.0914V107.481H32.6207V103.086H32.691ZM42.2799 107.639C43.5104 107.639 44.6705 106.954 45.2155 105.908H45.2506V107.481H46.7008V101.162C46.7008 99.3423 45.3473 98.1822 43.2028 98.1822C41.0406 98.1822 39.6871 99.3951 39.5817 100.977H41.0582C41.2516 100.081 41.9899 99.5269 43.1676 99.5269C44.4332 99.5269 45.1715 100.195 45.1715 101.311V102.076L42.5524 102.225C40.443 102.348 39.2389 103.333 39.2389 104.897C39.2389 106.541 40.4606 107.639 42.2799 107.639ZM42.6227 106.338C41.524 106.338 40.7946 105.767 40.7946 104.897C40.7946 104.036 41.4977 103.491 42.7281 103.412L45.1715 103.262V104.009C45.1715 105.328 44.0641 106.338 42.6227 106.338ZM53.8287 107.481H55.358V98.3404H52.0885C49.9879 98.3404 48.6344 99.4918 48.6344 101.373C48.6344 102.629 49.4166 103.579 50.7086 103.948L48.1598 107.481H49.9264L52.2467 104.229H53.8287V107.481ZM52.0973 102.972C50.9196 102.972 50.1549 102.295 50.1549 101.346C50.1549 100.248 50.9108 99.5972 52.0973 99.5972H53.8287V102.972H52.0973ZM63.1803 103.051V101.628H57.4147V103.051H63.1803ZM71.5651 98.3404H64.1471V99.5972H67.0914V107.481H68.6207V99.5972H71.5651V98.3404ZM76.6012 107.639C79.1237 107.639 80.8287 105.82 80.8287 102.911C80.8287 99.9927 79.1237 98.1822 76.6012 98.1822C74.0699 98.1822 72.3649 99.9927 72.3649 102.911C72.3649 105.82 74.0699 107.639 76.6012 107.639ZM76.6012 106.294C74.984 106.294 73.9205 105.064 73.9205 102.911C73.9205 100.757 74.984 99.5269 76.6012 99.5269C78.2184 99.5269 79.2731 100.757 79.2731 102.911C79.2731 105.064 78.2184 106.294 76.6012 106.294ZM90.1539 107.639C92.7994 107.639 94.4254 105.873 94.4254 102.999C94.4254 100.274 92.8522 98.5338 90.3824 98.5338C88.9762 98.5338 87.8336 99.0963 87.236 100.177H87.1656C87.5348 97.4439 88.2906 96.3277 90.8307 96.231L91.5074 96.2047C92.5621 96.1607 93.5289 95.9322 93.819 95.6685V94.3326C93.3004 94.605 92.316 94.7808 91.4371 94.8248L90.7604 94.8511C87.2096 94.983 85.8737 97.0836 85.8737 102.128C85.8737 105.758 87.3502 107.639 90.1539 107.639ZM90.1539 106.286C88.4313 106.286 87.4381 105.099 87.4381 102.999C87.4381 101.003 88.4313 99.8697 90.1539 99.8697C91.8678 99.8697 92.861 101.003 92.861 102.999C92.861 105.099 91.8678 106.286 90.1539 106.286ZM96.6403 110.9C98.2926 110.9 99.0485 110.258 99.8307 108.123L103.425 98.3404H101.817L99.2858 105.952H99.2594L96.7281 98.3404H95.0934L98.4684 107.49L98.2574 108.131C97.9059 109.195 97.4313 109.608 96.5787 109.608C96.3854 109.608 96.1481 109.599 95.9811 109.564V110.847C96.1481 110.882 96.4557 110.9 96.6403 110.9ZM104.964 109.898V107.481H112.056V109.898H113.48V106.224H112.03V98.3404H105.737L105.385 103.412C105.297 104.642 104.972 105.785 104.304 106.224H103.54V109.898H104.964ZM110.509 106.224H106.053V106.154C106.484 105.574 106.721 104.581 106.8 103.447L107.082 99.5972H110.509V106.224ZM120.924 104.862C120.67 105.723 119.817 106.312 118.657 106.312C117.013 106.312 115.985 105.161 115.985 103.412V103.324H122.542V102.744C122.542 99.9752 121.021 98.1822 118.551 98.1822C116.029 98.1822 114.412 100.107 114.412 102.946C114.412 105.82 116.003 107.639 118.622 107.639C120.617 107.639 122.164 106.461 122.427 104.862H120.924ZM118.525 99.5093C119.966 99.5093 120.924 100.599 120.96 102.128H115.994C116.09 100.608 117.092 99.5093 118.525 99.5093ZM130.592 98.3404H123.174V99.5972H126.119V107.481H127.648V99.5972H130.592V98.3404ZM141.614 107.481H143.152V98.3404H135.699V107.481H137.228V99.5972H141.614V107.481ZM149.093 107.639C151.616 107.639 153.321 105.82 153.321 102.911C153.321 99.9927 151.616 98.1822 149.093 98.1822C146.562 98.1822 144.857 99.9927 144.857 102.911C144.857 105.82 146.562 107.639 149.093 107.639ZM149.093 106.294C147.476 106.294 146.413 105.064 146.413 102.911C146.413 100.757 147.476 99.5269 149.093 99.5269C150.711 99.5269 151.765 100.757 151.765 102.911C151.765 105.064 150.711 106.294 149.093 106.294ZM155.378 109.898V107.481H162.47V109.898H163.894V106.224H162.444V98.3404H156.151L155.799 103.412C155.712 104.642 155.386 105.785 154.718 106.224H153.954V109.898H155.378ZM160.923 106.224H156.467V106.154C156.898 105.574 157.135 104.581 157.214 103.447L157.496 99.5972H160.923V106.224ZM171.145 99.5972V98.3404H165.265V107.481H166.795V99.5972H171.145ZM176.252 107.639C178.774 107.639 180.479 105.82 180.479 102.911C180.479 99.9927 178.774 98.1822 176.252 98.1822C173.72 98.1822 172.015 99.9927 172.015 102.911C172.015 105.82 173.72 107.639 176.252 107.639ZM176.252 106.294C174.634 106.294 173.571 105.064 173.571 102.911C173.571 100.757 174.634 99.5269 176.252 99.5269C177.869 99.5269 178.923 100.757 178.923 102.911C178.923 105.064 177.869 106.294 176.252 106.294ZM188.53 98.3404H181.112V99.5972H184.056V107.481H185.586V99.5972H188.53V98.3404ZM193.566 107.639C196.089 107.639 197.794 105.82 197.794 102.911C197.794 99.9927 196.089 98.1822 193.566 98.1822C191.035 98.1822 189.33 99.9927 189.33 102.911C189.33 105.82 191.035 107.639 193.566 107.639ZM193.566 106.294C191.949 106.294 190.885 105.064 190.885 102.911C190.885 100.757 191.949 99.5269 193.566 99.5269C195.183 99.5269 196.238 100.757 196.238 102.911C196.238 105.064 195.183 106.294 193.566 106.294ZM203.445 107.481C205.387 107.481 206.583 106.47 206.583 104.853C206.583 103.737 205.827 102.919 204.675 102.761V102.691C205.519 102.515 206.178 101.645 206.178 100.705C206.178 99.2369 205.132 98.3404 203.419 98.3404H199.507V107.481H203.445ZM201.037 99.5797H203.19C204.148 99.5797 204.667 100.037 204.667 100.863C204.667 101.751 204.113 102.181 202.962 102.181H201.037V99.5797ZM201.037 103.412H203.085C204.421 103.412 205.062 103.869 205.062 104.818C205.062 105.741 204.464 106.242 203.357 106.242H201.037V103.412ZM209.931 103.086L213.86 107.481H215.829L211.452 102.665L215.706 98.3404H213.816L209.931 102.383H209.861V98.3404H208.332V107.481H209.861V103.086H209.931ZM219.52 107.639C220.751 107.639 221.911 106.954 222.456 105.908H222.491V107.481H223.941V101.162C223.941 99.3423 222.588 98.1822 220.443 98.1822C218.281 98.1822 216.927 99.3951 216.822 100.977H218.298C218.492 100.081 219.23 99.5269 220.408 99.5269C221.673 99.5269 222.412 100.195 222.412 101.311V102.076L219.793 102.225C217.683 102.348 216.479 103.333 216.479 104.897C216.479 106.541 217.701 107.639 219.52 107.639ZM219.863 106.338C218.764 106.338 218.035 105.767 218.035 104.897C218.035 104.036 218.738 103.491 219.968 103.412L222.412 103.262V104.009C222.412 105.328 221.304 106.338 219.863 106.338Z" fill="white"/>
<path d="M16.4137 159.238C19.2174 159.238 21.0983 157.841 21.6783 155.336H20.0787C19.6217 156.883 18.2858 157.779 16.4225 157.779C13.9176 157.779 12.3268 155.793 12.3268 152.682C12.3268 149.597 13.9352 147.593 16.4137 147.593C18.2242 147.593 19.6744 148.683 20.0787 150.344H21.6783C21.274 147.813 19.1735 146.134 16.4137 146.134C12.942 146.134 10.7008 148.7 10.7008 152.682C10.7008 156.698 12.9156 159.238 16.4137 159.238ZM26.1608 159.186C27.3912 159.186 28.5514 158.5 29.0963 157.454H29.1315V159.028H30.5817V152.708C30.5817 150.889 29.2281 149.729 27.0836 149.729C24.9215 149.729 23.568 150.942 23.4625 152.524H24.9391C25.1324 151.627 25.8707 151.073 27.0485 151.073C28.3141 151.073 29.0524 151.741 29.0524 152.858V153.622L26.4332 153.772C24.3239 153.895 23.1198 154.879 23.1198 156.444C23.1198 158.087 24.3414 159.186 26.1608 159.186ZM26.5035 157.885C25.4049 157.885 24.6754 157.314 24.6754 156.444C24.6754 155.582 25.3785 155.037 26.609 154.958L29.0524 154.809V155.556C29.0524 156.874 27.9449 157.885 26.5035 157.885ZM33.2096 161.445V159.028H40.3024V161.445H41.7262V157.771H40.276V149.887H33.983L33.6315 154.958C33.5436 156.189 33.2184 157.331 32.5504 157.771H31.7858V161.445H33.2096ZM38.7555 157.771H34.2994V157.7C34.7301 157.12 34.9674 156.127 35.0465 154.993L35.3278 151.144H38.7555V157.771ZM44.609 159.028L49.1617 152.234H49.2321V159.028H50.7614V149.887H49.2496L44.6969 156.681H44.6266V149.887H43.0973V159.028H44.609ZM54.4176 159.028V152.541H54.4791L57.4323 158.764H58.6012L61.5543 152.541H61.6158V159.028H63.1364V149.887H61.3522L58.0826 157.006H58.0123L54.7604 149.887H52.9059V159.028H54.4176ZM72.8834 152.884C72.6901 151.24 71.3278 149.729 69.0426 149.729C66.5201 149.729 64.8414 151.574 64.8414 154.457C64.8414 157.402 66.5289 159.186 69.0602 159.186C71.1344 159.186 72.6637 157.903 72.901 156.083H71.3981C71.1344 157.182 70.317 157.841 69.069 157.841C67.4869 157.841 66.3971 156.584 66.3971 154.457C66.3971 152.383 67.4694 151.073 69.0514 151.073C70.3961 151.073 71.1696 151.891 71.3893 152.884H72.8834ZM79.4928 159.028H81.0221V149.887H77.7526C75.652 149.887 74.2985 151.038 74.2985 152.919C74.2985 154.176 75.0807 155.125 76.3727 155.494L73.8239 159.028H75.5905L77.9108 155.776H79.4928V159.028ZM77.7614 154.519C76.5836 154.519 75.819 153.842 75.819 152.893C75.819 151.794 76.5748 151.144 77.7614 151.144H79.4928V154.519H77.7614ZM84.3883 159.115C84.9508 159.115 85.3903 158.676 85.3903 158.113C85.3903 157.551 84.9508 157.112 84.3883 157.112C83.8258 157.112 83.3864 157.551 83.3864 158.113C83.3864 158.676 83.8258 159.115 84.3883 159.115ZM100.393 159.028V146.345H92.7379L92.2809 154.22C92.1403 156.672 91.6041 157.656 90.4 157.656C90.2594 157.656 90.0221 157.63 89.9254 157.604V159.019C90.0836 159.071 90.3121 159.107 90.5406 159.107C92.5885 159.107 93.5641 157.656 93.775 154.281L94.1793 147.769H98.8112V159.028H100.393ZM108.866 156.408C108.611 157.27 107.758 157.859 106.598 157.859C104.955 157.859 103.926 156.707 103.926 154.958V154.87H110.483V154.29C110.483 151.522 108.963 149.729 106.493 149.729C103.97 149.729 102.353 151.654 102.353 154.492C102.353 157.366 103.944 159.186 106.563 159.186C108.558 159.186 110.105 158.008 110.369 156.408H108.866ZM106.466 151.056C107.908 151.056 108.866 152.146 108.901 153.675H103.935C104.032 152.154 105.034 151.056 106.466 151.056ZM118.534 149.887H111.116V151.144H114.06V159.028H115.589V151.144H118.534V149.887ZM121.461 159.028L126.013 152.234H126.084V159.028H127.613V149.887H126.101L121.548 156.681H121.478V149.887H119.949V159.028H121.461ZM131.269 159.028V152.541H131.331L134.284 158.764H135.453L138.406 152.541H138.467V159.028H139.988V149.887H138.204L134.934 157.006H134.864L131.612 149.887H129.757V159.028H131.269ZM143.345 159.115C143.908 159.115 144.347 158.676 144.347 158.113C144.347 157.551 143.908 157.112 143.345 157.112C142.783 157.112 142.343 157.551 142.343 158.113C142.343 158.676 142.783 159.115 143.345 159.115ZM159.886 159.028V146.345H158.304V151.829H151.343V146.345H149.761V159.028H151.343V153.253H158.304V159.028H159.886ZM168.35 156.408C168.095 157.27 167.243 157.859 166.083 157.859C164.439 157.859 163.411 156.707 163.411 154.958V154.87H169.967V154.29C169.967 151.522 168.447 149.729 165.977 149.729C163.455 149.729 161.838 151.654 161.838 154.492C161.838 157.366 163.428 159.186 166.047 159.186C168.043 159.186 169.589 158.008 169.853 156.408H168.35ZM165.951 151.056C167.392 151.056 168.35 152.146 168.385 153.675H163.42C163.516 152.154 164.518 151.056 165.951 151.056ZM175.619 159.028C177.561 159.028 178.756 158.017 178.756 156.4C178.756 155.283 178.001 154.466 176.849 154.308V154.237C177.693 154.062 178.352 153.192 178.352 152.251C178.352 150.783 177.306 149.887 175.592 149.887H171.681V159.028H175.619ZM173.211 151.126H175.364C176.322 151.126 176.84 151.583 176.84 152.409C176.84 153.297 176.287 153.728 175.135 153.728H173.211V151.126ZM173.211 154.958H175.258C176.594 154.958 177.236 155.415 177.236 156.364C177.236 157.287 176.638 157.788 175.531 157.788H173.211V154.958ZM186.579 156.408C186.324 157.27 185.471 157.859 184.311 157.859C182.668 157.859 181.639 156.707 181.639 154.958V154.87H188.196V154.29C188.196 151.522 186.675 149.729 184.206 149.729C181.683 149.729 180.066 151.654 180.066 154.492C180.066 157.366 181.657 159.186 184.276 159.186C186.271 159.186 187.818 158.008 188.082 156.408H186.579ZM184.179 151.056C185.621 151.056 186.579 152.146 186.614 153.675H181.648C181.745 152.154 182.747 151.056 184.179 151.056ZM197.512 152.884C197.319 151.24 195.957 149.729 193.672 149.729C191.149 149.729 189.47 151.574 189.47 154.457C189.47 157.402 191.158 159.186 193.689 159.186C195.763 159.186 197.293 157.903 197.53 156.083H196.027C195.763 157.182 194.946 157.841 193.698 157.841C192.116 157.841 191.026 156.584 191.026 154.457C191.026 152.383 192.098 151.073 193.68 151.073C195.025 151.073 195.798 151.891 196.018 152.884H197.512ZM202.9 159.186C205.422 159.186 207.128 157.366 207.128 154.457C207.128 151.539 205.422 149.729 202.9 149.729C200.369 149.729 198.664 151.539 198.664 154.457C198.664 157.366 200.369 159.186 202.9 159.186ZM202.9 157.841C201.283 157.841 200.219 156.611 200.219 154.457C200.219 152.304 201.283 151.073 202.9 151.073C204.517 151.073 205.572 152.304 205.572 154.457C205.572 156.611 204.517 157.841 202.9 157.841ZM210.353 159.028V152.541H210.415L213.368 158.764H214.537L217.49 152.541H217.551V159.028H219.072V149.887H217.288L214.018 157.006H213.948L210.696 149.887H208.841V159.028H210.353ZM225.013 159.186C227.536 159.186 229.241 157.366 229.241 154.457C229.241 151.539 227.536 149.729 225.013 149.729C222.482 149.729 220.777 151.539 220.777 154.457C220.777 157.366 222.482 159.186 225.013 159.186ZM225.013 157.841C223.396 157.841 222.333 156.611 222.333 154.457C222.333 152.304 223.396 151.073 225.013 151.073C226.63 151.073 227.685 152.304 227.685 154.457C227.685 156.611 226.63 157.841 225.013 157.841ZM238.557 152.884C238.364 151.24 237.002 149.729 234.716 149.729C232.194 149.729 230.515 151.574 230.515 154.457C230.515 157.402 232.203 159.186 234.734 159.186C236.808 159.186 238.338 157.903 238.575 156.083H237.072C236.808 157.182 235.991 157.841 234.743 157.841C233.161 157.841 232.071 156.584 232.071 154.457C232.071 152.383 233.143 151.073 234.725 151.073C236.07 151.073 236.843 151.891 237.063 152.884H238.557ZM246.661 149.887H239.243V151.144H242.187V159.028H243.716V151.144H246.661V149.887ZM248.076 159.028H251.319C253.411 159.028 254.755 157.823 254.755 155.916C254.755 154.009 253.411 152.805 251.319 152.805H249.605V149.887H248.076V159.028ZM251.293 154.062C252.47 154.062 253.244 154.791 253.244 155.916C253.244 157.032 252.479 157.771 251.293 157.771H249.605V154.062H251.293Z" fill="white"/>
<path d="M22.0128 197.835H15.7374V193.476H21.6876V192.07H15.7374V188H22.0128V186.576H14.1554V199.259H22.0128V197.835ZM24.5529 201.676V199.259H31.6456V201.676H33.0695V198.002H31.6193V190.118H25.3263L24.9747 195.19C24.8868 196.42 24.5616 197.563 23.8937 198.002H23.129V201.676H24.5529ZM30.0988 198.002H25.6427V197.932C26.0734 197.352 26.3107 196.359 26.3898 195.225L26.671 191.375H30.0988V198.002ZM35.9523 199.259L40.505 192.465H40.5753V199.259H42.1046V190.118H40.5929L36.0402 196.912H35.9698V190.118H34.4406V199.259H35.9523ZM45.7609 199.259V192.773H45.8224L48.7755 198.995H49.9445L52.8976 192.773H52.9591V199.259H54.4796V190.118H52.6954L49.4259 197.237H49.3556L46.1036 190.118H44.2491V199.259H45.7609ZM61.8273 199.259L66.38 192.465H66.4503V199.259H67.9796V190.118H66.4679L61.9152 196.912H61.8448V190.118H60.3156V199.259H61.8273ZM73.174 199.417C75.3185 199.417 76.7423 198.275 76.7423 196.587C76.7423 195.559 76.1183 194.803 74.9142 194.539V194.469C75.8634 194.249 76.4874 193.405 76.4874 192.456C76.4874 190.971 75.3536 189.96 73.2706 189.96C71.337 189.96 70.0187 190.918 69.8253 192.43H71.3107C71.4337 191.7 72.1896 191.235 73.2706 191.235C74.4484 191.235 74.9933 191.797 74.9933 192.579C74.9933 193.502 74.3781 193.959 73.174 193.959H71.8029V195.207H73.174C74.5538 195.207 75.2394 195.655 75.2394 196.657C75.2394 197.528 74.5011 198.152 73.174 198.152C72.0402 198.152 71.2843 197.686 71.1085 196.886H69.5616C69.7198 198.433 71.17 199.417 73.174 199.417ZM88.8712 190.118H81.4532V191.375H84.3976V199.259H85.9269V191.375H88.8712V190.118ZM97.4933 199.417C100.06 199.417 101.642 197.624 101.642 194.689C101.642 191.744 100.06 189.96 97.4933 189.96C95.173 189.96 93.6613 191.428 93.3888 193.889H91.8156V190.118H90.2863V199.259H91.8156V195.146H93.3536C93.5206 197.809 95.0675 199.417 97.4933 199.417ZM97.4933 198.064C95.8409 198.064 94.9093 196.833 94.9093 194.689C94.9093 192.535 95.8409 191.314 97.4933 191.314C99.1456 191.314 100.077 192.535 100.077 194.689C100.077 196.833 99.1456 198.064 97.4933 198.064ZM107.267 199.417C109.912 199.417 111.538 197.651 111.538 194.777C111.538 192.052 109.965 190.312 107.495 190.312C106.089 190.312 104.946 190.874 104.349 191.955H104.278C104.648 189.222 105.403 188.106 107.943 188.009L108.62 187.983C109.675 187.939 110.642 187.71 110.932 187.446V186.111C110.413 186.383 109.429 186.559 108.55 186.603L107.873 186.629C104.322 186.761 102.986 188.862 102.986 193.906C102.986 197.536 104.463 199.417 107.267 199.417ZM107.267 198.064C105.544 198.064 104.551 196.877 104.551 194.777C104.551 192.781 105.544 191.648 107.267 191.648C108.981 191.648 109.974 192.781 109.974 194.777C109.974 196.877 108.981 198.064 107.267 198.064ZM114.755 199.259L119.308 192.465H119.378V199.259H120.907V190.118H119.396L114.843 196.912H114.773V190.118H113.243V199.259H114.755ZM124.651 194.864L128.58 199.259H130.549L126.172 194.443L130.426 190.118H128.536L124.651 194.161H124.581V190.118H123.052V199.259H124.581V194.864H124.651ZM135.444 199.417C137.967 199.417 139.672 197.598 139.672 194.689C139.672 191.771 137.967 189.96 135.444 189.96C132.913 189.96 131.208 191.771 131.208 194.689C131.208 197.598 132.913 199.417 135.444 199.417ZM135.444 198.072C133.827 198.072 132.764 196.842 132.764 194.689C132.764 192.535 133.827 191.305 135.444 191.305C137.062 191.305 138.116 192.535 138.116 194.689C138.116 196.842 137.062 198.072 135.444 198.072ZM145.323 199.259C147.266 199.259 148.461 198.248 148.461 196.631C148.461 195.515 147.705 194.697 146.554 194.539V194.469C147.398 194.293 148.057 193.423 148.057 192.483C148.057 191.015 147.011 190.118 145.297 190.118H141.386V199.259H145.323ZM142.915 191.358H145.068C146.026 191.358 146.545 191.815 146.545 192.641C146.545 193.529 145.991 193.959 144.84 193.959H142.915V191.358ZM142.915 195.19H144.963C146.299 195.19 146.941 195.647 146.941 196.596C146.941 197.519 146.343 198.02 145.235 198.02H142.915V195.19ZM151.423 192.263C151.985 192.263 152.425 191.823 152.425 191.261C152.425 190.698 151.985 190.259 151.423 190.259C150.86 190.259 150.421 190.698 150.421 191.261C150.421 191.823 150.86 192.263 151.423 192.263ZM151.423 199.347C151.985 199.347 152.425 198.907 152.425 198.345C152.425 197.782 151.985 197.343 151.423 197.343C150.86 197.343 150.421 197.782 150.421 198.345C150.421 198.907 150.86 199.347 151.423 199.347ZM162.787 199.47C165.433 199.47 167.305 197.686 167.305 195.137C167.305 192.702 165.547 190.936 163.112 190.936C161.882 190.936 160.827 191.393 160.23 192.245H160.194L160.625 187.983H166.584V186.576H159.324L158.674 193.81H160.071C160.66 192.79 161.627 192.298 162.831 192.298C164.519 192.298 165.723 193.502 165.723 195.181C165.723 196.886 164.527 198.081 162.805 198.081C161.284 198.081 160.133 197.15 159.992 195.796H158.437C158.568 197.958 160.361 199.47 162.787 199.47ZM176.63 199.259C178.572 199.259 179.768 198.248 179.768 196.631C179.768 195.515 179.012 194.697 177.86 194.539V194.469C178.704 194.293 179.363 193.423 179.363 192.483C179.363 191.015 178.318 190.118 176.604 190.118H172.693V199.259H176.63ZM174.222 191.358H176.375C177.333 191.358 177.852 191.815 177.852 192.641C177.852 193.529 177.298 193.959 176.147 193.959H174.222V191.358ZM174.222 195.19H176.27C177.606 195.19 178.247 195.647 178.247 196.596C178.247 197.519 177.65 198.02 176.542 198.02H174.222V195.19ZM183.028 199.259L187.581 192.465H187.651V199.259H189.181V190.118H187.669L183.116 196.912H183.046V190.118H181.517V199.259H183.028ZM191.844 201.676V199.259H198.937V201.676H200.36V198.002H198.91V190.118H192.617L192.266 195.19C192.178 196.42 191.853 197.563 191.185 198.002H190.42V201.676H191.844ZM197.39 198.002H192.934V197.932C193.364 197.352 193.602 196.359 193.681 195.225L193.962 191.375H197.39V198.002ZM205.528 199.417C208.051 199.417 209.756 197.598 209.756 194.689C209.756 191.771 208.051 189.96 205.528 189.96C202.997 189.96 201.292 191.771 201.292 194.689C201.292 197.598 202.997 199.417 205.528 199.417ZM205.528 198.072C203.911 198.072 202.848 196.842 202.848 194.689C202.848 192.535 203.911 191.305 205.528 191.305C207.146 191.305 208.2 192.535 208.2 194.689C208.2 196.842 207.146 198.072 205.528 198.072ZM215.407 199.259C217.35 199.259 218.545 198.248 218.545 196.631C218.545 195.515 217.789 194.697 216.638 194.539V194.469C217.482 194.293 218.141 193.423 218.141 192.483C218.141 191.015 217.095 190.118 215.381 190.118H211.47V199.259H215.407ZM212.999 191.358H215.152C216.11 191.358 216.629 191.815 216.629 192.641C216.629 193.529 216.075 193.959 214.924 193.959H212.999V191.358ZM212.999 195.19H215.047C216.383 195.19 217.025 195.647 217.025 196.596C217.025 197.519 216.427 198.02 215.319 198.02H212.999V195.19ZM225.497 199.259V192.773H225.559L228.512 198.995H229.681L232.634 192.773H232.695V199.259H234.216V190.118H232.432L229.162 197.237H229.092L225.84 190.118H223.985V199.259H225.497ZM242.434 196.64C242.179 197.501 241.326 198.09 240.166 198.09C238.523 198.09 237.494 196.939 237.494 195.19V195.102H244.051V194.522C244.051 191.753 242.53 189.96 240.061 189.96C237.538 189.96 235.921 191.885 235.921 194.724C235.921 197.598 237.512 199.417 240.131 199.417C242.126 199.417 243.673 198.239 243.937 196.64H242.434ZM240.034 191.287C241.476 191.287 242.434 192.377 242.469 193.906H237.503C237.6 192.386 238.602 191.287 240.034 191.287ZM251.768 199.259H253.297V190.118H251.768V193.889H247.294V190.118H245.765V199.259H247.294V195.146H251.768V199.259ZM262.657 199.417C265.224 199.417 266.806 197.624 266.806 194.689C266.806 191.744 265.224 189.96 262.657 189.96C260.337 189.96 258.825 191.428 258.553 193.889H256.98V190.118H255.45V199.259H256.98V195.146H258.518C258.685 197.809 260.232 199.417 262.657 199.417ZM262.657 198.064C261.005 198.064 260.073 196.833 260.073 194.689C260.073 192.535 261.005 191.314 262.657 191.314C264.31 191.314 265.241 192.535 265.241 194.689C265.241 196.833 264.31 198.064 262.657 198.064ZM19.9122 220.259H21.4415V211.118H19.9122V214.889H15.4386V211.118H13.9093V220.259H15.4386V216.146H19.9122V220.259ZM26.2755 220.417C27.506 220.417 28.6661 219.732 29.2111 218.686H29.2462V220.259H30.6964V213.94C30.6964 212.12 29.3429 210.96 27.1984 210.96C25.0363 210.96 23.6827 212.173 23.5773 213.755H25.0538C25.2472 212.859 25.9855 212.305 27.1632 212.305C28.4288 212.305 29.1671 212.973 29.1671 214.089V214.854L26.548 215.003C24.4386 215.126 23.2345 216.111 23.2345 217.675C23.2345 219.319 24.4562 220.417 26.2755 220.417ZM26.6183 219.116C25.5197 219.116 24.7902 218.545 24.7902 217.675C24.7902 216.814 25.4933 216.269 26.7238 216.19L29.1671 216.04V216.787C29.1671 218.106 28.0597 219.116 26.6183 219.116ZM40.4347 220.259C42.3771 220.259 43.5724 219.248 43.5724 217.631C43.5724 216.515 42.8165 215.697 41.6652 215.539V215.469C42.5089 215.293 43.1681 214.423 43.1681 213.483C43.1681 212.015 42.1222 211.118 40.4083 211.118H36.4972V220.259H40.4347ZM38.0265 212.358H40.1798C41.1378 212.358 41.6564 212.815 41.6564 213.641C41.6564 214.529 41.1027 214.959 39.9513 214.959H38.0265V212.358ZM38.0265 216.19H40.0743C41.4103 216.19 42.0519 216.647 42.0519 217.596C42.0519 218.519 41.4542 219.02 40.3468 219.02H38.0265V216.19ZM53.1437 220.259H54.6554V211.118H53.1437V220.259ZM45.3214 220.259H48.5646C50.6564 220.259 52.0011 219.055 52.0011 217.148C52.0011 215.24 50.6564 214.036 48.5646 214.036H46.8507V211.118H45.3214V220.259ZM48.5382 215.293C49.7159 215.293 50.4894 216.023 50.4894 217.148C50.4894 218.264 49.7247 219.002 48.5382 219.002H46.8507V215.293H48.5382ZM60.7198 220.417C63.3654 220.417 64.9913 218.651 64.9913 215.777C64.9913 213.052 63.4181 211.312 60.9484 211.312C59.5421 211.312 58.3995 211.874 57.8019 212.955H57.7316C58.1007 210.222 58.8566 209.106 61.3966 209.009L62.0734 208.983C63.1281 208.939 64.0948 208.71 64.3849 208.446V207.111C63.8663 207.383 62.882 207.559 62.0031 207.603L61.3263 207.629C57.7755 207.761 56.4396 209.862 56.4396 214.906C56.4396 218.536 57.9161 220.417 60.7198 220.417ZM60.7198 219.064C58.9972 219.064 58.004 217.877 58.004 215.777C58.004 213.781 58.9972 212.648 60.7198 212.648C62.4337 212.648 63.4269 213.781 63.4269 215.777C63.4269 217.877 62.4337 219.064 60.7198 219.064ZM70.4933 220.417C73.0157 220.417 74.7208 218.598 74.7208 215.689C74.7208 212.771 73.0157 210.96 70.4933 210.96C67.962 210.96 66.257 212.771 66.257 215.689C66.257 218.598 67.962 220.417 70.4933 220.417ZM70.4933 219.072C68.8761 219.072 67.8126 217.842 67.8126 215.689C67.8126 213.535 68.8761 212.305 70.4933 212.305C72.1105 212.305 73.1652 213.535 73.1652 215.689C73.1652 217.842 72.1105 219.072 70.4933 219.072ZM80.882 210.96C79.5548 210.96 78.4913 211.637 77.9288 212.665H77.8937V211.118H76.4435V223.309H77.9728V218.774H78.0079C78.5529 219.776 79.6075 220.417 80.9171 220.417C83.2198 220.417 84.7931 218.554 84.7931 215.689C84.7931 212.823 83.2111 210.96 80.882 210.96ZM80.5831 219.072C79.0187 219.072 77.964 217.728 77.964 215.689C77.964 213.658 79.0187 212.305 80.5831 212.305C82.2091 212.305 83.2286 213.623 83.2286 215.689C83.2286 217.763 82.2091 219.072 80.5831 219.072ZM90.796 215.267C90.796 218.325 91.6046 220.813 93.2921 222.957H94.5753C93.3273 221.507 92.3517 218.141 92.3517 215.267C92.3517 212.393 93.3273 209.027 94.5753 207.576H93.2921C91.6046 209.721 90.796 212.208 90.796 215.267ZM99.9366 220.259C101.879 220.259 103.074 219.248 103.074 217.631C103.074 216.515 102.318 215.697 101.167 215.539V215.469C102.011 215.293 102.67 214.423 102.67 213.483C102.67 212.015 101.624 211.118 99.9103 211.118H95.9991V220.259H99.9366ZM97.5284 212.358H99.6818C100.64 212.358 101.158 212.815 101.158 213.641C101.158 214.529 100.605 214.959 99.4532 214.959H97.5284V212.358ZM97.5284 216.19H99.5763C100.912 216.19 101.554 216.647 101.554 217.596C101.554 218.519 100.956 219.02 99.8488 219.02H97.5284V216.19ZM110.897 217.64C110.642 218.501 109.789 219.09 108.629 219.09C106.985 219.09 105.957 217.939 105.957 216.19V216.102H112.514V215.522C112.514 212.753 110.993 210.96 108.524 210.96C106.001 210.96 104.384 212.885 104.384 215.724C104.384 218.598 105.975 220.417 108.594 220.417C110.589 220.417 112.136 219.239 112.4 217.64H110.897ZM108.497 212.287C109.939 212.287 110.897 213.377 110.932 214.906H105.966C106.063 213.386 107.065 212.287 108.497 212.287ZM120.108 212.375V211.118H114.228V220.259H115.757V212.375H120.108ZM124.01 220.417C125.24 220.417 126.401 219.732 126.945 218.686H126.981V220.259H128.431V213.94C128.431 212.12 127.077 210.96 124.933 210.96C122.771 210.96 121.417 212.173 121.312 213.755H122.788C122.982 212.859 123.72 212.305 124.898 212.305C126.163 212.305 126.901 212.973 126.901 214.089V214.854L124.282 215.003C122.173 215.126 120.969 216.111 120.969 217.675C120.969 219.319 122.191 220.417 124.01 220.417ZM124.353 219.116C123.254 219.116 122.525 218.545 122.525 217.675C122.525 216.814 123.228 216.269 124.458 216.19L126.901 216.04V216.787C126.901 218.106 125.794 219.116 124.353 219.116ZM136.543 220.259H138.072V211.118H136.543V214.889H132.069V211.118H130.54V220.259H132.069V216.146H136.543V220.259ZM141.193 222.781L142.397 218.308H140.771L139.918 222.781H141.193ZM155.211 214.115C155.018 212.472 153.655 210.96 151.37 210.96C148.848 210.96 147.169 212.806 147.169 215.689C147.169 218.633 148.857 220.417 151.388 220.417C153.462 220.417 154.991 219.134 155.229 217.315H153.726C153.462 218.413 152.645 219.072 151.397 219.072C149.815 219.072 148.725 217.816 148.725 215.689C148.725 213.614 149.797 212.305 151.379 212.305C152.724 212.305 153.497 213.122 153.717 214.115H155.211ZM162.717 220.259H164.255V211.118H156.802V220.259H158.331V212.375H162.717V220.259ZM170.196 220.417C172.719 220.417 174.424 218.598 174.424 215.689C174.424 212.771 172.719 210.96 170.196 210.96C167.665 210.96 165.96 212.771 165.96 215.689C165.96 218.598 167.665 220.417 170.196 220.417ZM170.196 219.072C168.579 219.072 167.516 217.842 167.516 215.689C167.516 213.535 168.579 212.305 170.196 212.305C171.814 212.305 172.868 213.535 172.868 215.689C172.868 217.842 171.814 219.072 170.196 219.072ZM180.585 210.96C179.258 210.96 178.194 211.637 177.632 212.665H177.597V211.118H176.147V223.309H177.676V218.774H177.711C178.256 219.776 179.311 220.417 180.62 220.417C182.923 220.417 184.496 218.554 184.496 215.689C184.496 212.823 182.914 210.96 180.585 210.96ZM180.286 219.072C178.722 219.072 177.667 217.728 177.667 215.689C177.667 213.658 178.722 212.305 180.286 212.305C181.912 212.305 182.932 213.623 182.932 215.689C182.932 217.763 181.912 219.072 180.286 219.072ZM192.547 211.118H185.129V212.375H188.073V220.259H189.603V212.375H192.547V211.118ZM194.314 222.781L195.518 218.308H193.892L193.039 222.781H194.314ZM17.8292 241.417C20.4747 241.417 22.1007 239.651 22.1007 236.777C22.1007 234.052 20.5275 232.312 18.0577 232.312C16.6515 232.312 15.5089 232.874 14.9113 233.955H14.8409C15.2101 231.222 15.9659 230.106 18.506 230.009L19.1827 229.983C20.2374 229.939 21.2042 229.71 21.4943 229.446V228.111C20.9757 228.383 19.9913 228.559 19.1124 228.603L18.4357 228.629C14.8849 228.761 13.549 230.862 13.549 235.906C13.549 239.536 15.0255 241.417 17.8292 241.417ZM17.8292 240.064C16.1066 240.064 15.1134 238.877 15.1134 236.777C15.1134 234.781 16.1066 233.648 17.8292 233.648C19.5431 233.648 20.5363 234.781 20.5363 236.777C20.5363 238.877 19.5431 240.064 17.8292 240.064ZM29.879 238.64C29.6241 239.501 28.7716 240.09 27.6115 240.09C25.9679 240.09 24.9396 238.939 24.9396 237.19V237.102H31.4962V236.522C31.4962 233.753 29.9757 231.96 27.506 231.96C24.9835 231.96 23.3663 233.885 23.3663 236.724C23.3663 239.598 24.9572 241.417 27.5763 241.417C29.5714 241.417 31.1183 240.239 31.382 238.64H29.879ZM27.4796 233.287C28.921 233.287 29.879 234.377 29.9142 235.906H24.9484C25.045 234.386 26.047 233.287 27.4796 233.287ZM36.2599 241.417C38.4044 241.417 39.8282 240.275 39.8282 238.587C39.8282 237.559 39.2042 236.803 38.0001 236.539V236.469C38.9493 236.249 39.5734 235.405 39.5734 234.456C39.5734 232.971 38.4396 231.96 36.3566 231.96C34.423 231.96 33.1046 232.918 32.9113 234.43H34.3966C34.5197 233.7 35.2755 233.235 36.3566 233.235C37.5343 233.235 38.0792 233.797 38.0792 234.579C38.0792 235.502 37.464 235.959 36.2599 235.959H34.8888V237.207H36.2599C37.6398 237.207 38.3253 237.655 38.3253 238.657C38.3253 239.528 37.587 240.152 36.2599 240.152C35.1261 240.152 34.3702 239.686 34.1945 238.886H32.6476C32.8058 240.433 34.256 241.417 36.2599 241.417ZM43.8624 237.225L44.1437 233.375H47.2198V241.259H48.7491V232.118H42.7638L42.4122 237.19C42.298 238.868 41.9552 239.932 41.0499 239.932C40.8302 239.932 40.6632 239.888 40.5841 239.862V241.241C40.6896 241.285 40.8654 241.338 41.129 241.338C43.0538 241.338 43.6779 239.747 43.8624 237.225ZM53.5919 241.417C54.8224 241.417 55.9825 240.732 56.5275 239.686H56.5626V241.259H58.0128V234.94C58.0128 233.12 56.6593 231.96 54.5148 231.96C52.3527 231.96 50.9991 233.173 50.8937 234.755H52.3702C52.5636 233.859 53.3019 233.305 54.4796 233.305C55.7452 233.305 56.4835 233.973 56.4835 235.089V235.854L53.8644 236.003C51.755 236.126 50.5509 237.111 50.5509 238.675C50.5509 240.319 51.7726 241.417 53.5919 241.417ZM53.9347 240.116C52.8361 240.116 52.1066 239.545 52.1066 238.675C52.1066 237.814 52.8097 237.269 54.0402 237.19L56.4835 237.04V237.787C56.4835 239.106 55.3761 240.116 53.9347 240.116ZM61.7218 236.864L65.6505 241.259H67.6193L63.2423 236.443L67.4962 232.118H65.6066L61.7218 236.161H61.6515V232.118H60.1222V241.259H61.6515V236.864H61.7218ZM75.4064 232.118H67.9884V233.375H70.9327V241.259H72.462V233.375H75.4064V232.118ZM80.4425 241.417C82.965 241.417 84.67 239.598 84.67 236.689C84.67 233.771 82.965 231.96 80.4425 231.96C77.9113 231.96 76.2062 233.771 76.2062 236.689C76.2062 239.598 77.9113 241.417 80.4425 241.417ZM80.4425 240.072C78.8253 240.072 77.7618 238.842 77.7618 236.689C77.7618 234.535 78.8253 233.305 80.4425 233.305C82.0597 233.305 83.1144 234.535 83.1144 236.689C83.1144 238.842 82.0597 240.072 80.4425 240.072ZM89.4337 241.417C91.5782 241.417 93.0021 240.275 93.0021 238.587C93.0021 237.559 92.3781 236.803 91.174 236.539V236.469C92.1232 236.249 92.7472 235.405 92.7472 234.456C92.7472 232.971 91.6134 231.96 89.5304 231.96C87.5968 231.96 86.2784 232.918 86.0851 234.43H87.5704C87.6935 233.7 88.4493 233.235 89.5304 233.235C90.7081 233.235 91.2531 233.797 91.2531 234.579C91.2531 235.502 90.6378 235.959 89.4337 235.959H88.0626V237.207H89.4337C90.8136 237.207 91.4991 237.655 91.4991 238.657C91.4991 239.528 90.7609 240.152 89.4337 240.152C88.2999 240.152 87.5441 239.686 87.3683 238.886H85.8214C85.9796 240.433 87.4298 241.417 89.4337 241.417ZM100.754 241.259H102.283V232.118H100.754V235.889H96.2804V232.118H94.7511V241.259H96.2804V237.146H100.754V241.259ZM108.234 241.417C110.756 241.417 112.461 239.598 112.461 236.689C112.461 233.771 110.756 231.96 108.234 231.96C105.702 231.96 103.997 233.771 103.997 236.689C103.997 239.598 105.702 241.417 108.234 241.417ZM108.234 240.072C106.616 240.072 105.553 238.842 105.553 236.689C105.553 234.535 106.616 233.305 108.234 233.305C109.851 233.305 110.905 234.535 110.905 236.689C110.905 238.842 109.851 240.072 108.234 240.072ZM120.248 238.64C119.993 239.501 119.141 240.09 117.981 240.09C116.337 240.09 115.309 238.939 115.309 237.19V237.102H121.865V236.522C121.865 233.753 120.345 231.96 117.875 231.96C115.353 231.96 113.735 233.885 113.735 236.724C113.735 239.598 115.326 241.417 117.945 241.417C119.941 241.417 121.487 240.239 121.751 238.64H120.248ZM117.849 233.287C119.29 233.287 120.248 234.377 120.283 235.906H115.318C115.414 234.386 116.416 233.287 117.849 233.287ZM124.546 243.781L125.75 239.308H124.124L123.272 243.781H124.546ZM134.882 241.417C137.527 241.417 139.153 239.651 139.153 236.777C139.153 234.052 137.58 232.312 135.11 232.312C133.704 232.312 132.562 232.874 131.964 233.955H131.894C132.263 231.222 133.019 230.106 135.559 230.009L136.235 229.983C137.29 229.939 138.257 229.71 138.547 229.446V228.111C138.028 228.383 137.044 228.559 136.165 228.603L135.488 228.629C131.938 228.761 130.602 230.862 130.602 235.906C130.602 239.536 132.078 241.417 134.882 241.417ZM134.882 240.064C133.159 240.064 132.166 238.877 132.166 236.777C132.166 234.781 133.159 233.648 134.882 233.648C136.596 233.648 137.589 234.781 137.589 236.777C137.589 238.877 136.596 240.064 134.882 240.064ZM146.932 238.64C146.677 239.501 145.824 240.09 144.664 240.09C143.021 240.09 141.992 238.939 141.992 237.19V237.102H148.549V236.522C148.549 233.753 147.028 231.96 144.559 231.96C142.036 231.96 140.419 233.885 140.419 236.724C140.419 239.598 142.01 241.417 144.629 241.417C146.624 241.417 148.171 240.239 148.435 238.64H146.932ZM144.532 233.287C145.974 233.287 146.932 234.377 146.967 235.906H142.001C142.098 234.386 143.1 233.287 144.532 233.287ZM153.313 241.417C155.457 241.417 156.881 240.275 156.881 238.587C156.881 237.559 156.257 236.803 155.053 236.539V236.469C156.002 236.249 156.626 235.405 156.626 234.456C156.626 232.971 155.492 231.96 153.409 231.96C151.476 231.96 150.157 232.918 149.964 234.43H151.449C151.572 233.7 152.328 233.235 153.409 233.235C154.587 233.235 155.132 233.797 155.132 234.579C155.132 235.502 154.517 235.959 153.313 235.959H151.942V237.207H153.313C154.693 237.207 155.378 237.655 155.378 238.657C155.378 239.528 154.64 240.152 153.313 240.152C152.179 240.152 151.423 239.686 151.247 238.886H149.7C149.859 240.433 151.309 241.417 153.313 241.417ZM164.51 233.375V232.118H158.63V241.259H160.159V233.375H164.51ZM167.753 237.225L168.034 233.375H171.11V241.259H172.64V232.118H166.654L166.303 237.19C166.189 238.868 165.846 239.932 164.941 239.932C164.721 239.932 164.554 239.888 164.475 239.862V241.241C164.58 241.285 164.756 241.338 165.02 241.338C166.944 241.338 167.568 239.747 167.753 237.225ZM182.009 241.417C184.575 241.417 186.157 239.624 186.157 236.689C186.157 233.744 184.575 231.96 182.009 231.96C179.689 231.96 178.177 233.428 177.904 235.889H176.331V232.118H174.802V241.259H176.331V237.146H177.869C178.036 239.809 179.583 241.417 182.009 241.417ZM182.009 240.064C180.357 240.064 179.425 238.833 179.425 236.689C179.425 234.535 180.357 233.314 182.009 233.314C183.661 233.314 184.593 234.535 184.593 236.689C184.593 238.833 183.661 240.064 182.009 240.064ZM194.199 232.118H186.781V233.375H189.726V241.259H191.255V233.375H194.199V232.118ZM201.512 238.64C201.257 239.501 200.404 240.09 199.244 240.09C197.601 240.09 196.572 238.939 196.572 237.19V237.102H203.129V236.522C203.129 233.753 201.609 231.96 199.139 231.96C196.616 231.96 194.999 233.885 194.999 236.724C194.999 239.598 196.59 241.417 199.209 241.417C201.204 241.417 202.751 240.239 203.015 238.64H201.512ZM199.112 233.287C200.554 233.287 201.512 234.377 201.547 235.906H196.581C196.678 234.386 197.68 233.287 199.112 233.287ZM210.846 241.259H212.375V232.118H210.846V235.889H206.372V232.118H204.843V241.259H206.372V237.146H210.846V241.259ZM218.325 241.417C220.848 241.417 222.553 239.598 222.553 236.689C222.553 233.771 220.848 231.96 218.325 231.96C215.794 231.96 214.089 233.771 214.089 236.689C214.089 239.598 215.794 241.417 218.325 241.417ZM218.325 240.072C216.708 240.072 215.645 238.842 215.645 236.689C215.645 234.535 216.708 233.305 218.325 233.305C219.943 233.305 220.997 234.535 220.997 236.689C220.997 238.842 219.943 240.072 218.325 240.072ZM228.204 241.259C230.147 241.259 231.342 240.248 231.342 238.631C231.342 237.515 230.586 236.697 229.435 236.539V236.469C230.278 236.293 230.938 235.423 230.938 234.483C230.938 233.015 229.892 232.118 228.178 232.118H224.267V241.259H228.204ZM225.796 233.358H227.949C228.907 233.358 229.426 233.815 229.426 234.641C229.426 235.529 228.872 235.959 227.721 235.959H225.796V233.358ZM225.796 237.19H227.844C229.18 237.19 229.821 237.647 229.821 238.596C229.821 239.519 229.224 240.02 228.116 240.02H225.796V237.19ZM236.888 241.417C239.41 241.417 241.115 239.598 241.115 236.689C241.115 233.771 239.41 231.96 236.888 231.96C234.357 231.96 232.651 233.771 232.651 236.689C232.651 239.598 234.357 241.417 236.888 241.417ZM236.888 240.072C235.271 240.072 234.207 238.842 234.207 236.689C234.207 234.535 235.271 233.305 236.888 233.305C238.505 233.305 239.56 234.535 239.56 236.689C239.56 238.842 238.505 240.072 236.888 240.072ZM248.902 238.64C248.648 239.501 247.795 240.09 246.635 240.09C244.991 240.09 243.963 238.939 243.963 237.19V237.102H250.52V236.522C250.52 233.753 248.999 231.96 246.529 231.96C244.007 231.96 242.39 233.885 242.39 236.724C242.39 239.598 243.981 241.417 246.6 241.417C248.595 241.417 250.142 240.239 250.405 238.64H248.902ZM246.503 233.287C247.944 233.287 248.902 234.377 248.938 235.906H243.972C244.068 234.386 245.07 233.287 246.503 233.287ZM253.2 243.781L254.404 239.308H252.778L251.926 243.781H253.2ZM17.7062 262.417C20.2286 262.417 21.9337 260.598 21.9337 257.689C21.9337 254.771 20.2286 252.96 17.7062 252.96C15.1749 252.96 13.4698 254.771 13.4698 257.689C13.4698 260.598 15.1749 262.417 17.7062 262.417ZM17.7062 261.072C16.089 261.072 15.0255 259.842 15.0255 257.689C15.0255 255.535 16.089 254.305 17.7062 254.305C19.3234 254.305 20.3781 255.535 20.3781 257.689C20.3781 259.842 19.3234 261.072 17.7062 261.072ZM27.5675 262.417C30.213 262.417 31.839 260.651 31.839 257.777C31.839 255.052 30.2657 253.312 27.796 253.312C26.3898 253.312 25.2472 253.874 24.6495 254.955H24.5792C24.9484 252.222 25.7042 251.106 28.2443 251.009L28.921 250.983C29.9757 250.939 30.9425 250.71 31.2325 250.446V249.111C30.714 249.383 29.7296 249.559 28.8507 249.603L28.174 249.629C24.6232 249.761 23.2872 251.862 23.2872 256.906C23.2872 260.536 24.7638 262.417 27.5675 262.417ZM27.5675 261.064C25.8448 261.064 24.8517 259.877 24.8517 257.777C24.8517 255.781 25.8448 254.648 27.5675 254.648C29.2814 254.648 30.2745 255.781 30.2745 257.777C30.2745 259.877 29.2814 261.064 27.5675 261.064ZM41.3663 262.259H42.8781V253.118H41.3663V262.259ZM33.5441 262.259H36.7872C38.879 262.259 40.2238 261.055 40.2238 259.148C40.2238 257.24 38.879 256.036 36.7872 256.036H35.0734V253.118H33.5441V262.259ZM36.7609 257.293C37.9386 257.293 38.712 258.023 38.712 259.148C38.712 260.264 37.9474 261.002 36.7609 261.002H35.0734V257.293H36.7609ZM51.9923 262.259V253.118H50.463V256.968C50.0323 257.399 49.2325 257.689 48.213 257.689C46.9474 257.689 46.3234 256.924 46.3234 255.729V253.118H44.7941V255.746C44.7941 257.697 45.9454 259.025 48.1603 259.025C49.1271 259.025 49.8126 258.814 50.3312 258.471H50.463V262.259H51.9923ZM60.1486 262.259H61.6779V253.118H60.1486V256.889H55.6749V253.118H54.1456V262.259H55.6749V258.146H60.1486V262.259ZM67.6281 262.417C70.1505 262.417 71.8556 260.598 71.8556 257.689C71.8556 254.771 70.1505 252.96 67.6281 252.96C65.0968 252.96 63.3917 254.771 63.3917 257.689C63.3917 260.598 65.0968 262.417 67.6281 262.417ZM67.6281 261.072C66.0109 261.072 64.9474 259.842 64.9474 257.689C64.9474 255.535 66.0109 254.305 67.6281 254.305C69.2452 254.305 70.2999 255.535 70.2999 257.689C70.2999 259.842 69.2452 261.072 67.6281 261.072ZM79.6427 259.64C79.3878 260.501 78.5353 261.09 77.3751 261.09C75.7316 261.09 74.7032 259.939 74.7032 258.19V258.102H81.2599V257.522C81.2599 254.753 79.7394 252.96 77.2697 252.96C74.7472 252.96 73.13 254.885 73.13 257.724C73.13 260.598 74.7208 262.417 77.34 262.417C79.3351 262.417 80.882 261.239 81.1456 259.64H79.6427ZM77.2433 254.287C78.6847 254.287 79.6427 255.377 79.6779 256.906H74.712C74.8087 255.386 75.8107 254.287 77.2433 254.287ZM86.0323 257.267C86.0323 254.208 85.2238 251.721 83.5363 249.576H82.2531C83.5011 251.027 84.4767 254.393 84.4767 257.267C84.4767 260.141 83.5011 263.507 82.2531 264.957H83.5363C85.2238 262.813 86.0323 260.325 86.0323 257.267Z" fill="white"/>
<path d="M249.171 299.837H258.452V302.342H259.92V298.414H258.338V287.155H250.489L250.006 295.135C249.909 296.796 249.566 297.921 248.644 298.414H247.703V302.342H249.171V299.837ZM251.491 295.17L251.904 288.579H256.756V298.414H250.604V298.343C251.228 297.587 251.403 296.621 251.491 295.17ZM267.593 297.218C267.338 298.08 266.485 298.669 265.325 298.669C263.682 298.669 262.653 297.517 262.653 295.768V295.68H269.21V295.1C269.21 292.332 267.689 290.539 265.22 290.539C262.697 290.539 261.08 292.463 261.08 295.302C261.08 298.176 262.671 299.996 265.29 299.996C267.285 299.996 268.832 298.818 269.096 297.218H267.593ZM265.193 291.866C266.635 291.866 267.593 292.956 267.628 294.485H262.662C262.759 292.964 263.761 291.866 265.193 291.866ZM273.033 295.803L273.314 291.954H276.391V299.837H277.92V290.697H271.935L271.583 295.768C271.469 297.447 271.126 298.51 270.221 298.51C270.001 298.51 269.834 298.466 269.755 298.44V299.82C269.86 299.864 270.036 299.917 270.3 299.917C272.225 299.917 272.849 298.326 273.033 295.803ZM282.763 299.996C283.993 299.996 285.153 299.31 285.698 298.264H285.733V299.837H287.184V293.518C287.184 291.699 285.83 290.539 283.686 290.539C281.523 290.539 280.17 291.752 280.064 293.334H281.541C281.734 292.437 282.473 291.883 283.65 291.883C284.916 291.883 285.654 292.551 285.654 293.668V294.432L283.035 294.582C280.926 294.705 279.722 295.689 279.722 297.253C279.722 298.897 280.943 299.996 282.763 299.996ZM283.105 298.695C282.007 298.695 281.277 298.124 281.277 297.253C281.277 296.392 281.98 295.847 283.211 295.768L285.654 295.619V296.366C285.654 297.684 284.547 298.695 283.105 298.695ZM295.366 297.218C295.111 298.08 294.259 298.669 293.099 298.669C291.455 298.669 290.427 297.517 290.427 295.768V295.68H296.983V295.1C296.983 292.332 295.463 290.539 292.993 290.539C290.471 290.539 288.854 292.463 288.854 295.302C288.854 298.176 290.444 299.996 293.063 299.996C295.059 299.996 296.605 298.818 296.869 297.218H295.366ZM292.967 291.866C294.408 291.866 295.366 292.956 295.401 294.485H290.436C290.532 292.964 291.534 291.866 292.967 291.866ZM300.209 299.837V293.351H300.27L303.224 299.574H304.393L307.346 293.351H307.407V299.837H308.928V290.697H307.144L303.874 297.816H303.804L300.552 290.697H298.697V299.837H300.209ZM263.594 320.952V323.887H265.07V320.952C267.9 320.908 269.79 319.088 269.79 316.267C269.79 313.446 267.9 311.635 265.07 311.583V308.691H263.594V311.583C260.746 311.627 258.865 313.446 258.865 316.267C258.865 319.088 260.746 320.899 263.594 320.952ZM263.594 319.651C261.643 319.598 260.403 318.324 260.403 316.267C260.403 314.202 261.643 312.927 263.594 312.883V319.651ZM268.252 316.267C268.252 318.333 267.013 319.607 265.07 319.651V312.883C267.013 312.936 268.252 314.211 268.252 316.267ZM275.301 320.996C277.823 320.996 279.528 319.176 279.528 316.267C279.528 313.349 277.823 311.539 275.301 311.539C272.77 311.539 271.064 313.349 271.064 316.267C271.064 319.176 272.77 320.996 275.301 320.996ZM275.301 319.651C273.684 319.651 272.62 318.42 272.62 316.267C272.62 314.114 273.684 312.883 275.301 312.883C276.918 312.883 277.973 314.114 277.973 316.267C277.973 318.42 276.918 319.651 275.301 319.651ZM287.579 311.697H280.161V312.954H283.105V320.837H284.635V312.954H287.579V311.697ZM292.615 320.996C295.138 320.996 296.843 319.176 296.843 316.267C296.843 313.349 295.138 311.539 292.615 311.539C290.084 311.539 288.379 313.349 288.379 316.267C288.379 319.176 290.084 320.996 292.615 320.996ZM292.615 319.651C290.998 319.651 289.935 318.42 289.935 316.267C289.935 314.114 290.998 312.883 292.615 312.883C294.232 312.883 295.287 314.114 295.287 316.267C295.287 318.42 294.232 319.651 292.615 319.651ZM306.186 320.837C308.128 320.837 309.323 319.827 309.323 318.21C309.323 317.093 308.567 316.276 307.416 316.118V316.047C308.26 315.872 308.919 315.002 308.919 314.061C308.919 312.593 307.873 311.697 306.159 311.697H302.248V320.837H306.186ZM303.777 312.936H305.931C306.889 312.936 307.407 313.393 307.407 314.219C307.407 315.107 306.854 315.538 305.702 315.538H303.777V312.936ZM303.777 316.768H305.825C307.161 316.768 307.803 317.225 307.803 318.174C307.803 319.097 307.205 319.598 306.098 319.598H303.777V316.768ZM227.91 341.837L232.463 335.044H232.533V341.837H234.062V332.697H232.551L227.998 339.491H227.928V332.697H226.398V341.837H227.91ZM242.21 341.837H243.739V332.697H242.21V336.467H237.736V332.697H236.207V341.837H237.736V337.724H242.21V341.837ZM253.495 335.694C253.302 334.05 251.939 332.539 249.654 332.539C247.132 332.539 245.453 334.384 245.453 337.267C245.453 340.211 247.141 341.996 249.672 341.996C251.746 341.996 253.275 340.712 253.513 338.893H252.01C251.746 339.992 250.929 340.651 249.681 340.651C248.099 340.651 247.009 339.394 247.009 337.267C247.009 335.193 248.081 333.883 249.663 333.883C251.008 333.883 251.781 334.701 252.001 335.694H253.495ZM261.599 332.697H254.181V333.954H257.125V341.837H258.654V333.954H261.599V332.697ZM265.343 341.996C266.573 341.996 267.733 341.31 268.278 340.264H268.313V341.837H269.764V335.518C269.764 333.699 268.41 332.539 266.266 332.539C264.104 332.539 262.75 333.752 262.645 335.334H264.121C264.314 334.437 265.053 333.883 266.23 333.883C267.496 333.883 268.234 334.551 268.234 335.668V336.432L265.615 336.582C263.506 336.705 262.302 337.689 262.302 339.253C262.302 340.897 263.523 341.996 265.343 341.996ZM265.686 340.695C264.587 340.695 263.857 340.124 263.857 339.253C263.857 338.392 264.561 337.847 265.791 337.768L268.234 337.619V338.366C268.234 339.684 267.127 340.695 265.686 340.695ZM277.753 333.954V332.697H271.873V341.837H273.402V333.954H277.753ZM283.861 332.539C282.534 332.539 281.471 333.215 280.908 334.244H280.873V332.697H279.423V344.887H280.952V340.352H280.987C281.532 341.354 282.587 341.996 283.896 341.996C286.199 341.996 287.772 340.132 287.772 337.267C287.772 334.402 286.19 332.539 283.861 332.539ZM283.562 340.651C281.998 340.651 280.943 339.306 280.943 337.267C280.943 335.237 281.998 333.883 283.562 333.883C285.188 333.883 286.208 335.202 286.208 337.267C286.208 339.341 285.188 340.651 283.562 340.651ZM292.167 341.996C293.397 341.996 294.558 341.31 295.103 340.264H295.138V341.837H296.588V335.518C296.588 333.699 295.234 332.539 293.09 332.539C290.928 332.539 289.574 333.752 289.469 335.334H290.945C291.139 334.437 291.877 333.883 293.055 333.883C294.32 333.883 295.059 334.551 295.059 335.668V336.432L292.439 336.582C290.33 336.705 289.126 337.689 289.126 339.253C289.126 340.897 290.348 341.996 292.167 341.996ZM292.51 340.695C291.411 340.695 290.682 340.124 290.682 339.253C290.682 338.392 291.385 337.847 292.615 337.768L295.059 337.619V338.366C295.059 339.684 293.951 340.695 292.51 340.695ZM300.209 341.837V335.351H300.27L303.224 341.574H304.393L307.346 335.351H307.407V341.837H308.928V332.697H307.144L303.874 339.816H303.804L300.552 332.697H298.697V341.837H300.209Z" fill="white"/>
<path d="M105.068 359V346.317H95.1273V359H96.7182V347.759H103.503V359H105.068ZM111.914 349.701C110.587 349.701 109.524 350.378 108.961 351.406H108.926V349.859H107.476V362.05H109.005V357.515H109.04C109.585 358.517 110.64 359.158 111.95 359.158C114.252 359.158 115.826 357.295 115.826 354.43C115.826 351.564 114.244 349.701 111.914 349.701ZM111.616 357.813C110.051 357.813 108.996 356.469 108.996 354.43C108.996 352.399 110.051 351.046 111.616 351.046C113.242 351.046 114.261 352.364 114.261 354.43C114.261 356.504 113.242 357.813 111.616 357.813ZM119.051 359L123.604 352.206H123.674V359H125.204V349.859H123.692L119.139 356.653H119.069V349.859H117.539V359H119.051ZM130.398 359.158C132.542 359.158 133.966 358.016 133.966 356.328C133.966 355.3 133.342 354.544 132.138 354.28V354.21C133.087 353.99 133.711 353.146 133.711 352.197C133.711 350.712 132.578 349.701 130.495 349.701C128.561 349.701 127.243 350.659 127.049 352.171H128.535C128.658 351.441 129.413 350.976 130.495 350.976C131.672 350.976 132.217 351.538 132.217 352.32C132.217 353.243 131.602 353.7 130.398 353.7H129.027V354.948H130.398C131.778 354.948 132.463 355.396 132.463 356.398C132.463 357.269 131.725 357.893 130.398 357.893C129.264 357.893 128.508 357.427 128.332 356.627H126.786C126.944 358.174 128.394 359.158 130.398 359.158ZM141.788 356.381C141.534 357.242 140.681 357.831 139.521 357.831C137.877 357.831 136.849 356.68 136.849 354.931V354.843H143.406V354.263C143.406 351.494 141.885 349.701 139.415 349.701C136.893 349.701 135.276 351.626 135.276 354.465C135.276 357.339 136.867 359.158 139.486 359.158C141.481 359.158 143.028 357.98 143.291 356.381H141.788ZM139.389 351.028C140.83 351.028 141.788 352.118 141.824 353.647H136.858C136.954 352.127 137.956 351.028 139.389 351.028ZM146.631 359V352.514H146.693L149.646 358.736H150.815L153.768 352.514H153.829V359H155.35V349.859H153.566L150.296 356.979H150.226L146.974 349.859H145.12V359H146.631ZM159.955 354.966L160.237 351.116H163.313V359H164.842V349.859H158.857L158.505 354.931C158.391 356.609 158.048 357.673 157.143 357.673C156.923 357.673 156.756 357.629 156.677 357.603V358.982C156.783 359.026 156.958 359.079 157.222 359.079C159.147 359.079 159.771 357.488 159.955 354.966ZM172.023 359H173.552V349.859H170.283C168.182 349.859 166.829 351.011 166.829 352.892C166.829 354.148 167.611 355.098 168.903 355.467L166.354 359H168.121L170.441 355.748H172.023V359ZM170.291 354.491C169.114 354.491 168.349 353.814 168.349 352.865C168.349 351.767 169.105 351.116 170.291 351.116H172.023V354.491H170.291ZM181.779 356.381C181.524 357.242 180.671 357.831 179.511 357.831C177.868 357.831 176.839 356.68 176.839 354.931V354.843H183.396V354.263C183.396 351.494 181.875 349.701 179.406 349.701C176.883 349.701 175.266 351.626 175.266 354.465C175.266 357.339 176.857 359.158 179.476 359.158C181.471 359.158 183.018 357.98 183.282 356.381H181.779ZM179.379 351.028C180.821 351.028 181.779 352.118 181.814 353.647H176.848C176.945 352.127 177.947 351.028 179.379 351.028ZM186.621 359V352.514H186.683L189.636 358.736H190.805L193.758 352.514H193.82V359H195.34V349.859H193.556L190.287 356.979H190.216L186.964 349.859H185.11V359H186.621ZM205.087 352.856C204.894 351.213 203.532 349.701 201.246 349.701C198.724 349.701 197.045 351.547 197.045 354.43C197.045 357.374 198.733 359.158 201.264 359.158C203.338 359.158 204.868 357.875 205.105 356.056H203.602C203.338 357.154 202.521 357.813 201.273 357.813C199.691 357.813 198.601 356.557 198.601 354.43C198.601 352.355 199.673 351.046 201.255 351.046C202.6 351.046 203.373 351.863 203.593 352.856H205.087ZM211.697 359H213.226V349.859H209.956C207.856 349.859 206.502 351.011 206.502 352.892C206.502 354.148 207.285 355.098 208.577 355.467L206.028 359H207.794L210.115 355.748H211.697V359ZM209.965 354.491C208.788 354.491 208.023 353.814 208.023 352.865C208.023 351.767 208.779 351.116 209.965 351.116H211.697V354.491H209.965ZM216.346 361.522L217.55 357.049H215.924L215.072 361.522H216.346ZM100.884 380H102.413V370.859H100.884V374.63H96.4106V370.859H94.8813V380H96.4106V375.887H100.884V380ZM108.364 380.158C110.886 380.158 112.591 378.339 112.591 375.43C112.591 372.512 110.886 370.701 108.364 370.701C105.832 370.701 104.127 372.512 104.127 375.43C104.127 378.339 105.832 380.158 108.364 380.158ZM108.364 378.813C106.746 378.813 105.683 377.583 105.683 375.43C105.683 373.276 106.746 372.046 108.364 372.046C109.981 372.046 111.036 373.276 111.036 375.43C111.036 377.583 109.981 378.813 108.364 378.813ZM118.946 377.214H117.434C117.742 378.945 119.201 380.158 121.257 380.158C123.797 380.158 125.458 378.339 125.458 375.43C125.458 372.582 123.797 370.701 121.275 370.701C119.069 370.701 117.706 372.107 117.452 373.672H118.963C119.201 372.775 119.974 372.046 121.266 372.046C122.62 372.046 123.648 372.995 123.841 374.63H119.746V375.878H123.885C123.788 377.759 122.707 378.813 121.248 378.813C120.044 378.813 119.236 378.225 118.946 377.214ZM133.509 370.859H126.091V372.116H129.036V380H130.565V372.116H133.509V370.859ZM138.545 380.158C141.068 380.158 142.773 378.339 142.773 375.43C142.773 372.512 141.068 370.701 138.545 370.701C136.014 370.701 134.309 372.512 134.309 375.43C134.309 378.339 136.014 380.158 138.545 380.158ZM138.545 378.813C136.928 378.813 135.865 377.583 135.865 375.43C135.865 373.276 136.928 372.046 138.545 372.046C140.163 372.046 141.217 373.276 141.217 375.43C141.217 377.583 140.163 378.813 138.545 378.813ZM154.181 380H155.71V370.859H154.181V374.63H149.707V370.859H148.178V380H149.707V375.887H154.181V380ZM163.937 377.381C163.682 378.242 162.829 378.831 161.669 378.831C160.026 378.831 158.997 377.68 158.997 375.931V375.843H165.554V375.263C165.554 372.494 164.034 370.701 161.564 370.701C159.041 370.701 157.424 372.626 157.424 375.465C157.424 378.339 159.015 380.158 161.634 380.158C163.629 380.158 165.176 378.98 165.44 377.381H163.937ZM161.538 372.028C162.979 372.028 163.937 373.118 163.972 374.647H159.006C159.103 373.127 160.105 372.028 161.538 372.028ZM177.648 370.859H170.23V372.116H173.174V380H174.704V372.116H177.648V370.859ZM182.684 380.158C185.206 380.158 186.912 378.339 186.912 375.43C186.912 372.512 185.206 370.701 182.684 370.701C180.153 370.701 178.448 372.512 178.448 375.43C178.448 378.339 180.153 380.158 182.684 380.158ZM182.684 378.813C181.067 378.813 180.003 377.583 180.003 375.43C180.003 373.276 181.067 372.046 182.684 372.046C184.301 372.046 185.356 373.276 185.356 375.43C185.356 377.583 184.301 378.813 182.684 378.813ZM195.507 380V370.859H193.978V374.709C193.547 375.14 192.747 375.43 191.728 375.43C190.462 375.43 189.838 374.665 189.838 373.47V370.859H188.309V373.487C188.309 375.438 189.46 376.766 191.675 376.766C192.642 376.766 193.328 376.555 193.846 376.212H193.978V380H195.507ZM203.663 380H205.193V370.859H203.663V374.63H199.19V370.859H197.661V380H199.19V375.887H203.663V380ZM211.143 380.158C213.665 380.158 215.371 378.339 215.371 375.43C215.371 372.512 213.665 370.701 211.143 370.701C208.612 370.701 206.907 372.512 206.907 375.43C206.907 378.339 208.612 380.158 211.143 380.158ZM211.143 378.813C209.526 378.813 208.462 377.583 208.462 375.43C208.462 373.276 209.526 372.046 211.143 372.046C212.76 372.046 213.815 373.276 213.815 375.43C213.815 377.583 212.76 378.813 211.143 378.813Z" fill="white"/>
</svg>
