<svg width="601" height="111" viewBox="0 0 601 111" fill="none" xmlns="http://www.w3.org/2000/svg">
<path d="M531.163 77.5625C537.754 77.5625 541.745 72.5 541.745 64.0977C541.745 54.834 536.752 51.0547 531.163 51.0547C525.502 51.0547 521.389 54.7988 521.389 60.0547C521.389 64.9941 525.098 68.334 529.809 68.334C533.131 68.334 535.645 66.6816 536.559 64.2207H536.664C536.7 69.6699 534.995 73.3613 531.18 73.3613C529.053 73.3613 527.489 72.3945 526.926 70.584H521.688C522.356 74.6973 526.188 77.5625 531.163 77.5625ZM531.18 64.3965C528.526 64.3965 526.557 62.498 526.557 59.8438C526.557 57.2773 528.614 55.291 531.233 55.291C533.834 55.291 535.891 57.3125 535.891 59.9316C535.891 62.5332 533.852 64.3965 531.18 64.3965ZM554.401 77.5625C560.993 77.5625 564.983 72.5 564.983 64.0977C564.983 54.834 559.991 51.0547 554.401 51.0547C548.741 51.0547 544.627 54.7988 544.627 60.0547C544.627 64.9941 548.336 68.334 553.047 68.334C556.37 68.334 558.883 66.6816 559.797 64.2207H559.903C559.938 69.6699 558.233 73.3613 554.418 73.3613C552.291 73.3613 550.727 72.3945 550.164 70.584H544.926C545.594 74.6973 549.426 77.5625 554.401 77.5625ZM554.418 64.3965C551.764 64.3965 549.795 62.498 549.795 59.8438C549.795 57.2773 551.852 55.291 554.471 55.291C557.073 55.291 559.129 57.3125 559.129 59.9316C559.129 62.5332 557.09 64.3965 554.418 64.3965Z" fill="white"/>
<path d="M277.887 77H282.932V72.3418H286.272V68.1055H282.932V51.6348H275.444C270.241 59.2812 267.481 63.7109 265.266 67.9121V72.3418H277.887V77ZM269.889 68.1055C271.911 64.3262 274.213 60.7227 277.887 55.4316H277.993V68.2461H269.889V68.1055ZM301.038 68.9316V64.4492H289.489V68.9316H301.038ZM314.766 77.5625C320.584 77.5625 324.575 73.9238 324.575 68.5625C324.575 63.7285 321.112 60.248 316.278 60.248C313.711 60.248 311.62 61.2852 310.565 62.9902H310.459L311.075 55.8535H323.045V51.6348H306.856L305.696 66.5234H310.319C311.18 64.9941 312.762 64.0449 314.801 64.0449C317.579 64.0449 319.512 65.9609 319.512 68.6855C319.512 71.4453 317.579 73.3613 314.784 73.3613C312.34 73.3613 310.459 71.9199 310.161 69.7227H305.256C305.397 74.3281 309.334 77.5625 314.766 77.5625Z" fill="white"/>
<path d="M143.139 77H148.395V51.6348H143.122L136.565 56.1875V60.8984L143.034 56.5039H143.139V77ZM164.11 77.5625C170.543 77.5625 174.446 72.4473 174.446 64.2559C174.446 56.0645 170.508 51.0547 164.11 51.0547C157.711 51.0547 153.756 56.082 153.756 64.2734C153.756 72.4824 157.676 77.5625 164.11 77.5625ZM164.11 73.3086C160.981 73.3086 159.153 70.0918 159.153 64.2734C159.153 58.5078 161.016 55.3086 164.11 55.3086C167.221 55.3086 169.049 58.4902 169.049 64.2734C169.049 70.0918 167.239 73.3086 164.11 73.3086ZM187.735 77.5625C194.168 77.5625 198.071 72.4473 198.071 64.2559C198.071 56.0645 194.133 51.0547 187.735 51.0547C181.336 51.0547 177.381 56.082 177.381 64.2734C177.381 72.4824 181.301 77.5625 187.735 77.5625ZM187.735 73.3086C184.606 73.3086 182.778 70.0918 182.778 64.2734C182.778 58.5078 184.641 55.3086 187.735 55.3086C190.846 55.3086 192.674 58.4902 192.674 64.2734C192.674 70.0918 190.864 73.3086 187.735 73.3086Z" fill="white"/>
<path d="M387.495 59.3516H392.416C392.416 56.9082 394.332 55.2031 396.864 55.2031C399.149 55.2031 400.713 56.75 400.713 58.7891C400.713 60.5469 399.993 61.7598 396.776 64.8535L387.793 73.3613V77H406.233V72.7812H394.737V72.6758L400.063 67.5781C404.352 63.4824 405.881 61.5664 405.881 58.4551C405.881 54.2363 402.295 51.0723 396.864 51.0723C391.362 51.0723 387.495 54.4648 387.495 59.3516ZM419.258 77.5625C425.077 77.5625 429.067 73.9238 429.067 68.5625C429.067 63.7285 425.604 60.248 420.77 60.248C418.204 60.248 416.112 61.2852 415.057 62.9902H414.952L415.567 55.8535H427.538V51.6348H411.348L410.188 66.5234H414.811C415.672 64.9941 417.254 64.0449 419.293 64.0449C422.071 64.0449 424.004 65.9609 424.004 68.6855C424.004 71.4453 422.071 73.3613 419.276 73.3613C416.832 73.3613 414.952 71.9199 414.653 69.7227H409.748C409.889 74.3281 413.827 77.5625 419.258 77.5625ZM442.039 77.5625C448.473 77.5625 452.375 72.4473 452.375 64.2559C452.375 56.0645 448.438 51.0547 442.039 51.0547C435.641 51.0547 431.686 56.082 431.686 64.2734C431.686 72.4824 435.606 77.5625 442.039 77.5625ZM442.039 73.3086C438.911 73.3086 437.082 70.0918 437.082 64.2734C437.082 58.5078 438.946 55.3086 442.039 55.3086C445.151 55.3086 446.979 58.4902 446.979 64.2734C446.979 70.0918 445.168 73.3086 442.039 73.3086Z" fill="white"/>
<path d="M34.139 77H39.3949V51.6348H34.1215L27.5648 56.1875V60.8984L34.0336 56.5039H34.139V77ZM55.1097 77.5625C61.5433 77.5625 65.4457 72.4473 65.4457 64.2559C65.4457 56.0645 61.5082 51.0547 55.1097 51.0547C48.7113 51.0547 44.7562 56.082 44.7562 64.2734C44.7562 72.4824 48.6761 77.5625 55.1097 77.5625ZM55.1097 73.3086C51.9808 73.3086 50.1527 70.0918 50.1527 64.2734C50.1527 58.5078 52.016 55.3086 55.1097 55.3086C58.2211 55.3086 60.0492 58.4902 60.0492 64.2734C60.0492 70.0918 58.2386 73.3086 55.1097 73.3086Z" fill="white"/>
<path d="M398.659 92.6719H392.301V94.1758H394.482V100H396.478V94.1758H398.659V92.6719ZM406.65 100H408.639V92.6719H406.65V100ZM399.677 100H403.095C404.825 100 405.932 98.9883 405.932 97.3955C405.932 95.8027 404.825 94.791 403.095 94.791H401.673V92.6719H399.677V100ZM402.767 96.2607C403.485 96.2607 403.957 96.7119 403.957 97.3818C403.957 98.0518 403.492 98.5098 402.767 98.5098H401.673V96.2607H402.767ZM416.712 95.3994C416.617 93.7383 415.366 92.5146 413.376 92.5146C411.182 92.5146 409.781 93.9775 409.781 96.3291C409.781 98.7217 411.182 100.157 413.39 100.157C415.318 100.157 416.61 99.043 416.719 97.3135H414.86C414.73 98.1133 414.21 98.5918 413.411 98.5918C412.426 98.5918 411.804 97.7715 411.804 96.3291C411.804 94.9141 412.419 94.0801 413.404 94.0801C414.231 94.0801 414.744 94.627 414.853 95.3994H416.712ZM419.037 100.082C419.645 100.082 420.137 99.5898 420.137 98.9814C420.137 98.3662 419.645 97.8809 419.037 97.8809C418.421 97.8809 417.936 98.3662 417.936 98.9814C417.936 99.5898 418.421 100.082 419.037 100.082ZM424.888 101.894V100H429.817V101.894H431.635V98.4893H430.548V92.6719H424.683L424.444 96.3564C424.375 97.3477 424.17 98.1885 423.637 98.4893H423.077V101.894H424.888ZM428.559 98.4893H425.667V98.4346C425.996 97.9424 426.146 97.2656 426.201 96.4863L426.365 94.1689H428.559V98.4893ZM435.832 100.157C438.047 100.157 439.462 98.7422 439.462 96.3291C439.462 93.9502 438.034 92.5146 435.832 92.5146C433.638 92.5146 432.203 93.957 432.203 96.3291C432.203 98.7354 433.618 100.157 435.832 100.157ZM435.832 98.6328C434.855 98.6328 434.233 97.8057 434.233 96.3359C434.233 94.8799 434.862 94.0391 435.832 94.0391C436.81 94.0391 437.439 94.8799 437.439 96.3359C437.439 97.8057 436.81 98.6328 435.832 98.6328ZM443.044 96.4863L443.188 94.1758H445.034V100H447.03V92.6719H441.472L441.267 96.3564C441.206 97.5117 440.994 98.3594 440.296 98.3594C440.098 98.3594 439.948 98.332 439.866 98.3115V99.9932C439.968 100.027 440.194 100.082 440.501 100.082C442.313 100.082 442.915 98.6602 443.044 96.4863Z" fill="white"/>
<path d="M35.5912 100V95.0986H35.6391L37.5327 99.5898H38.9135L40.8139 95.0986H40.8618V100H42.7348V92.6719H40.1782L38.2641 97.457H38.2162L36.3022 92.6719H33.7182V100H35.5912ZM46.1323 100L49.0375 95.3652H49.0922V100H51.0541V92.6719H49.0991L46.1938 97.2451H46.1391V92.6719H44.1772V100H46.1323ZM57.2885 100H59.2846V92.6719H57.2885V95.4883H54.4858V92.6719H52.4897V100H54.4858V96.999H57.2885V100Z" fill="white"/>
<path d="M160.769 96.8555L163.237 100H165.65L162.553 96.0693L165.479 92.6719H163.196L160.769 95.6182H160.714V92.6719H158.718V100H160.714V96.8555H160.769ZM168.316 100V95.0986H168.364L170.257 99.5898H171.638L173.539 95.0986H173.586V100H175.459V92.6719H172.903L170.989 97.457H170.941L169.027 92.6719H166.443V100H168.316Z" fill="white"/>
<path d="M285.591 100V95.0986H285.639L287.533 99.5898H288.914L290.814 95.0986H290.862V100H292.735V92.6719H290.178L288.264 97.457H288.216L286.302 92.6719H283.718V100H285.591ZM296.132 100L299.038 95.3652H299.092V100H301.054V92.6719H299.099L296.194 97.2451H296.139V92.6719H294.177V100H296.132ZM307.289 100H309.285V92.6719H307.289V95.4883H304.486V92.6719H302.49V100H304.486V96.999H307.289V100Z" fill="white"/>
<path d="M540.047 96.4375C541.672 96.4375 542.735 95.2969 542.735 93.4844C542.735 91.6562 541.665 90.5547 540.047 90.5547C538.422 90.5547 537.352 91.6562 537.352 93.4922C537.352 95.3047 538.415 96.4375 540.047 96.4375ZM541.024 102L548.665 90.7266H546.977L539.329 102H541.024ZM540.047 95.1172C539.422 95.1172 539 94.5781 539 93.4922C539 92.3906 539.422 91.8828 540.047 91.8828C540.672 91.8828 541.086 92.3906 541.086 93.4922C541.086 94.5781 540.665 95.1172 540.047 95.1172ZM547.954 102.164C549.579 102.164 550.641 101.023 550.641 99.2109C550.641 97.375 549.571 96.2734 547.954 96.2734C546.329 96.2734 545.258 97.3828 545.258 99.2109C545.258 101.031 546.321 102.164 547.954 102.164ZM547.954 100.836C547.329 100.836 546.907 100.305 546.907 99.2109C546.907 98.1094 547.329 97.6016 547.954 97.6016C548.579 97.6016 548.993 98.1172 548.993 99.2109C548.993 100.305 548.571 100.836 547.954 100.836Z" fill="white"/>
<path d="M5.60974 26C7.3363 26 8.3988 25.1016 8.3988 23.6641C8.3988 22.6719 7.72692 21.9453 6.70349 21.8047V21.7422C7.45349 21.5859 8.03942 20.8125 8.03942 19.9766C8.03942 18.6719 7.10974 17.875 5.5863 17.875H2.10974V26H5.60974ZM3.46911 18.9766H5.38317C6.23474 18.9766 6.69567 19.3828 6.69567 20.1172C6.69567 20.9062 6.20349 21.2891 5.18005 21.2891H3.46911V18.9766ZM3.46911 22.3828H5.28942C6.47692 22.3828 7.04724 22.7891 7.04724 23.6328C7.04724 24.4531 6.51599 24.8984 5.53161 24.8984H3.46911V22.3828ZM13.9066 17.7344C12.7269 17.7344 11.7816 18.3359 11.2816 19.25H11.2504V17.875H9.9613V28.7109H11.3207V24.6797H11.3519C11.8363 25.5703 12.7738 26.1406 13.9379 26.1406C15.9847 26.1406 17.3832 24.4844 17.3832 21.9375C17.3832 19.3906 15.9769 17.7344 13.9066 17.7344ZM13.641 24.9453C12.2504 24.9453 11.3129 23.75 11.3129 21.9375C11.3129 20.1328 12.2504 18.9297 13.641 18.9297C15.0863 18.9297 15.9925 20.1016 15.9925 21.9375C15.9925 23.7812 15.0863 24.9453 13.641 24.9453ZM24.305 23.6719C24.0785 24.4375 23.3207 24.9609 22.2894 24.9609C20.8285 24.9609 19.9144 23.9375 19.9144 22.3828V22.3047H25.7425V21.7891C25.7425 19.3281 24.391 17.7344 22.1957 17.7344C19.9535 17.7344 18.516 19.4453 18.516 21.9688C18.516 24.5234 19.93 26.1406 22.2582 26.1406C24.0316 26.1406 25.4066 25.0938 25.641 23.6719H24.305ZM22.1722 18.9141C23.4535 18.9141 24.305 19.8828 24.3363 21.2422H19.9222C20.0082 19.8906 20.8988 18.9141 22.1722 18.9141ZM28.6097 26V20.2344H28.6644L31.2894 25.7656H32.3285L34.9535 20.2344H35.0082V26H36.3597V17.875H34.7738L31.8675 24.2031H31.805L28.9144 17.875H27.266V26H28.6097ZM42.7269 26H44.0863V17.875H41.18C39.3129 17.875 38.1097 18.8984 38.1097 20.5703C38.1097 21.6875 38.805 22.5312 39.9535 22.8594L37.6879 26H39.2582L41.3207 23.1094H42.7269V26ZM41.1879 21.9922C40.141 21.9922 39.4613 21.3906 39.4613 20.5469C39.4613 19.5703 40.1332 18.9922 41.1879 18.9922H42.7269V21.9922H41.1879ZM52.7816 26C54.5082 26 55.5707 25.1016 55.5707 23.6641C55.5707 22.6719 54.8988 21.9453 53.8754 21.8047V21.7422C54.6254 21.5859 55.2113 20.8125 55.2113 19.9766C55.2113 18.6719 54.2816 17.875 52.7582 17.875H49.2816V26H52.7816ZM50.641 18.9766H52.555C53.4066 18.9766 53.8675 19.3828 53.8675 20.1172C53.8675 20.9062 53.3754 21.2891 52.3519 21.2891H50.641V18.9766ZM50.641 22.3828H52.4613C53.6488 22.3828 54.2191 22.7891 54.2191 23.6328C54.2191 24.4531 53.6879 24.8984 52.7035 24.8984H50.641V22.3828ZM65.6644 26H67.0316V17.875H60.4066V26H61.766V18.9922H65.6644V26ZM69.6254 29.0391C71.0941 29.0391 71.766 28.4688 72.4613 26.5703L75.6566 17.875H74.2269L71.9769 24.6406H71.9535L69.7035 17.875H68.2504L71.2504 26.0078L71.0629 26.5781C70.7504 27.5234 70.3285 27.8906 69.5707 27.8906C69.3988 27.8906 69.1879 27.8828 69.0394 27.8516V28.9922C69.1879 29.0234 69.4613 29.0391 69.6254 29.0391ZM82.8207 17.875H76.2269V18.9922H78.8441V26H80.2035V18.9922H82.8207V17.875ZM85.4222 26L89.4691 19.9609H89.5316V26H90.891V17.875H89.5472L85.5004 23.9141H85.4379V17.875H84.0785V26H85.4222Z" fill="white"/>
<path d="M131.219 17.7344C130.039 17.7344 129.094 18.3359 128.594 19.25H128.563V17.875H127.274V28.7109H128.633V24.6797H128.664C129.149 25.5703 130.086 26.1406 131.25 26.1406C133.297 26.1406 134.696 24.4844 134.696 21.9375C134.696 19.3906 133.289 17.7344 131.219 17.7344ZM130.953 24.9453C129.563 24.9453 128.625 23.75 128.625 21.9375C128.625 20.1328 129.563 18.9297 130.953 18.9297C132.399 18.9297 133.305 20.1016 133.305 21.9375C133.305 23.7812 132.399 24.9453 130.953 24.9453ZM138.602 26.1406C139.696 26.1406 140.727 25.5312 141.211 24.6016H141.243V26H142.532V20.3828C142.532 18.7656 141.328 17.7344 139.422 17.7344C137.5 17.7344 136.297 18.8125 136.203 20.2188H137.516C137.688 19.4219 138.344 18.9297 139.391 18.9297C140.516 18.9297 141.172 19.5234 141.172 20.5156V21.1953L138.844 21.3281C136.969 21.4375 135.899 22.3125 135.899 23.7031C135.899 25.1641 136.985 26.1406 138.602 26.1406ZM138.907 24.9844C137.93 24.9844 137.282 24.4766 137.282 23.7031C137.282 22.9375 137.907 22.4531 139 22.3828L141.172 22.25V22.9141C141.172 24.0859 140.188 24.9844 138.907 24.9844ZM151.164 20.5391C150.993 19.0781 149.782 17.7344 147.75 17.7344C145.508 17.7344 144.016 19.375 144.016 21.9375C144.016 24.5547 145.516 26.1406 147.766 26.1406C149.61 26.1406 150.969 25 151.18 23.3828H149.844C149.61 24.3594 148.883 24.9453 147.774 24.9453C146.368 24.9453 145.399 23.8281 145.399 21.9375C145.399 20.0938 146.352 18.9297 147.758 18.9297C148.953 18.9297 149.641 19.6562 149.836 20.5391H151.164ZM159.336 20.5391C159.164 19.0781 157.953 17.7344 155.922 17.7344C153.68 17.7344 152.188 19.375 152.188 21.9375C152.188 24.5547 153.688 26.1406 155.938 26.1406C157.782 26.1406 159.141 25 159.352 23.3828H158.016C157.782 24.3594 157.055 24.9453 155.946 24.9453C154.539 24.9453 153.571 23.8281 153.571 21.9375C153.571 20.0938 154.524 18.9297 155.93 18.9297C157.125 18.9297 157.813 19.6562 158.008 20.5391H159.336ZM166.539 17.875H159.946V18.9922H162.563V26H163.922V18.9922H166.539V17.875ZM171.016 26.1406C173.258 26.1406 174.774 24.5234 174.774 21.9375C174.774 19.3438 173.258 17.7344 171.016 17.7344C168.766 17.7344 167.25 19.3438 167.25 21.9375C167.25 24.5234 168.766 26.1406 171.016 26.1406ZM171.016 24.9453C169.578 24.9453 168.633 23.8516 168.633 21.9375C168.633 20.0234 169.578 18.9297 171.016 18.9297C172.453 18.9297 173.391 20.0234 173.391 21.9375C173.391 23.8516 172.453 24.9453 171.016 24.9453ZM180.68 26H182.039V17.875H179.133C177.266 17.875 176.063 18.8984 176.063 20.5703C176.063 21.6875 176.758 22.5312 177.907 22.8594L175.641 26H177.211L179.274 23.1094H180.68V26ZM179.141 21.9922C178.094 21.9922 177.414 21.3906 177.414 20.5469C177.414 19.5703 178.086 18.9922 179.141 18.9922H180.68V21.9922H179.141ZM189.289 26H190.649V17.875H189.289V21.2266H185.313V17.875H183.953V26H185.313V22.3438H189.289V26ZM193.907 26L197.953 19.9609H198.016V26H199.375V17.875H198.032L193.985 23.9141H193.922V17.875H192.563V26H193.907ZM206.68 23.6719C206.453 24.4375 205.696 24.9609 204.664 24.9609C203.203 24.9609 202.289 23.9375 202.289 22.3828V22.3047H208.118V21.7891C208.118 19.3281 206.766 17.7344 204.571 17.7344C202.328 17.7344 200.891 19.4453 200.891 21.9688C200.891 24.5234 202.305 26.1406 204.633 26.1406C206.407 26.1406 207.782 25.0938 208.016 23.6719H206.68ZM204.547 18.9141C205.828 18.9141 206.68 19.8828 206.711 21.2422H202.297C202.383 19.8906 203.274 18.9141 204.547 18.9141Z" fill="white"/>
<path d="M389.844 20.5391C389.672 19.0781 388.461 17.7344 386.43 17.7344C384.188 17.7344 382.696 19.375 382.696 21.9375C382.696 24.5547 384.196 26.1406 386.446 26.1406C388.289 26.1406 389.649 25 389.86 23.3828H388.524C388.289 24.3594 387.563 24.9453 386.453 24.9453C385.047 24.9453 384.078 23.8281 384.078 21.9375C384.078 20.0938 385.032 18.9297 386.438 18.9297C387.633 18.9297 388.321 19.6562 388.516 20.5391H389.844ZM397.047 17.875H390.453V18.9922H393.071V26H394.43V18.9922H397.047V17.875ZM401.524 26.1406C403.766 26.1406 405.282 24.5234 405.282 21.9375C405.282 19.3438 403.766 17.7344 401.524 17.7344C399.274 17.7344 397.758 19.3438 397.758 21.9375C397.758 24.5234 399.274 26.1406 401.524 26.1406ZM401.524 24.9453C400.086 24.9453 399.141 23.8516 399.141 21.9375C399.141 20.0234 400.086 18.9297 401.524 18.9297C402.961 18.9297 403.899 20.0234 403.899 21.9375C403.899 23.8516 402.961 24.9453 401.524 24.9453ZM408.149 26L412.196 19.9609H412.258V26H413.618V17.875H412.274L408.227 23.9141H408.164V17.875H406.805V26H408.149ZM416.868 26V20.2344H416.922L419.547 25.7656H420.586L423.211 20.2344H423.266V26H424.618V17.875H423.032L420.125 24.2031H420.063L417.172 17.875H415.524V26H416.868ZM429.899 26.1406C432.141 26.1406 433.657 24.5234 433.657 21.9375C433.657 19.3438 432.141 17.7344 429.899 17.7344C427.649 17.7344 426.133 19.3438 426.133 21.9375C426.133 24.5234 427.649 26.1406 429.899 26.1406ZM429.899 24.9453C428.461 24.9453 427.516 23.8516 427.516 21.9375C427.516 20.0234 428.461 18.9297 429.899 18.9297C431.336 18.9297 432.274 20.0234 432.274 21.9375C432.274 23.8516 431.336 24.9453 429.899 24.9453ZM441.938 20.5391C441.766 19.0781 440.555 17.7344 438.524 17.7344C436.282 17.7344 434.789 19.375 434.789 21.9375C434.789 24.5547 436.289 26.1406 438.539 26.1406C440.383 26.1406 441.743 25 441.953 23.3828H440.618C440.383 24.3594 439.657 24.9453 438.547 24.9453C437.141 24.9453 436.172 23.8281 436.172 21.9375C436.172 20.0938 437.125 18.9297 438.532 18.9297C439.727 18.9297 440.414 19.6562 440.61 20.5391H441.938ZM449.141 17.875H442.547V18.9922H445.164V26H446.524V18.9922H449.141V17.875ZM450.399 26H453.282C455.141 26 456.336 24.9297 456.336 23.2344C456.336 21.5391 455.141 20.4688 453.282 20.4688H451.758V17.875H450.399V26ZM453.258 21.5859C454.305 21.5859 454.993 22.2344 454.993 23.2344C454.993 24.2266 454.313 24.8828 453.258 24.8828H451.758V21.5859H453.258Z" fill="white"/>
<path d="M249.094 26C250.821 26 251.883 25.1016 251.883 23.6641C251.883 22.6719 251.211 21.9453 250.188 21.8047V21.7422C250.938 21.5859 251.524 20.8125 251.524 19.9766C251.524 18.6719 250.594 17.875 249.071 17.875H245.594V26H249.094ZM246.953 18.9766H248.868C249.719 18.9766 250.18 19.3828 250.18 20.1172C250.18 20.9062 249.688 21.2891 248.664 21.2891H246.953V18.9766ZM246.953 22.3828H248.774C249.961 22.3828 250.532 22.7891 250.532 23.6328C250.532 24.4531 250 24.8984 249.016 24.8984H246.953V22.3828ZM262.055 26H263.414V17.875H262.055V21.2266H258.078V17.875H256.719V26H258.078V22.3438H262.055V26ZM270.727 23.6719C270.5 24.4375 269.743 24.9609 268.711 24.9609C267.25 24.9609 266.336 23.9375 266.336 22.3828V22.3047H272.164V21.7891C272.164 19.3281 270.813 17.7344 268.618 17.7344C266.375 17.7344 264.938 19.4453 264.938 21.9688C264.938 24.5234 266.352 26.1406 268.68 26.1406C270.453 26.1406 271.828 25.0938 272.063 23.6719H270.727ZM268.594 18.9141C269.875 18.9141 270.727 19.8828 270.758 21.2422H266.344C266.43 19.8906 267.321 18.9141 268.594 18.9141ZM277.188 26C278.914 26 279.977 25.1016 279.977 23.6641C279.977 22.6719 279.305 21.9453 278.282 21.8047V21.7422C279.032 21.5859 279.618 20.8125 279.618 19.9766C279.618 18.6719 278.688 17.875 277.164 17.875H273.688V26H277.188ZM275.047 18.9766H276.961C277.813 18.9766 278.274 19.3828 278.274 20.1172C278.274 20.9062 277.782 21.2891 276.758 21.2891H275.047V18.9766ZM275.047 22.3828H276.868C278.055 22.3828 278.625 22.7891 278.625 23.6328C278.625 24.4531 278.094 24.8984 277.11 24.8984H275.047V22.3828ZM286.93 23.6719C286.703 24.4375 285.946 24.9609 284.914 24.9609C283.453 24.9609 282.539 23.9375 282.539 22.3828V22.3047H288.368V21.7891C288.368 19.3281 287.016 17.7344 284.821 17.7344C282.578 17.7344 281.141 19.4453 281.141 21.9688C281.141 24.5234 282.555 26.1406 284.883 26.1406C286.657 26.1406 288.032 25.0938 288.266 23.6719H286.93ZM284.797 18.9141C286.078 18.9141 286.93 19.8828 286.961 21.2422H282.547C282.633 19.8906 283.524 18.9141 284.797 18.9141ZM296.649 20.5391C296.477 19.0781 295.266 17.7344 293.235 17.7344C290.993 17.7344 289.5 19.375 289.5 21.9375C289.5 24.5547 291 26.1406 293.25 26.1406C295.094 26.1406 296.453 25 296.664 23.3828H295.328C295.094 24.3594 294.368 24.9453 293.258 24.9453C291.852 24.9453 290.883 23.8281 290.883 21.9375C290.883 20.0938 291.836 18.9297 293.243 18.9297C294.438 18.9297 295.125 19.6562 295.321 20.5391H296.649ZM301.438 26.1406C303.68 26.1406 305.196 24.5234 305.196 21.9375C305.196 19.3438 303.68 17.7344 301.438 17.7344C299.188 17.7344 297.672 19.3438 297.672 21.9375C297.672 24.5234 299.188 26.1406 301.438 26.1406ZM301.438 24.9453C300 24.9453 299.055 23.8516 299.055 21.9375C299.055 20.0234 300 18.9297 301.438 18.9297C302.875 18.9297 303.813 20.0234 303.813 21.9375C303.813 23.8516 302.875 24.9453 301.438 24.9453ZM308.063 26V20.2344H308.118L310.743 25.7656H311.782L314.407 20.2344H314.461V26H315.813V17.875H314.227L311.321 24.2031H311.258L308.368 17.875H306.719V26H308.063ZM321.094 26.1406C323.336 26.1406 324.852 24.5234 324.852 21.9375C324.852 19.3438 323.336 17.7344 321.094 17.7344C318.844 17.7344 317.328 19.3438 317.328 21.9375C317.328 24.5234 318.844 26.1406 321.094 26.1406ZM321.094 24.9453C319.657 24.9453 318.711 23.8516 318.711 21.9375C318.711 20.0234 319.657 18.9297 321.094 18.9297C322.532 18.9297 323.469 20.0234 323.469 21.9375C323.469 23.8516 322.532 24.9453 321.094 24.9453ZM333.133 20.5391C332.961 19.0781 331.75 17.7344 329.719 17.7344C327.477 17.7344 325.985 19.375 325.985 21.9375C325.985 24.5547 327.485 26.1406 329.735 26.1406C331.578 26.1406 332.938 25 333.149 23.3828H331.813C331.578 24.3594 330.852 24.9453 329.743 24.9453C328.336 24.9453 327.368 23.8281 327.368 21.9375C327.368 20.0938 328.321 18.9297 329.727 18.9297C330.922 18.9297 331.61 19.6562 331.805 20.5391H333.133ZM340.336 17.875H333.743V18.9922H336.36V26H337.719V18.9922H340.336V17.875ZM342.938 26L346.985 19.9609H347.047V26H348.407V17.875H347.063L343.016 23.9141H342.953V17.875H341.594V26H342.938Z" fill="white"/>
<path d="M505.844 26C507.571 26 508.633 25.1016 508.633 23.6641C508.633 22.6719 507.961 21.9453 506.938 21.8047V21.7422C507.688 21.5859 508.274 20.8125 508.274 19.9766C508.274 18.6719 507.344 17.875 505.821 17.875H502.344V26H505.844ZM503.703 18.9766H505.618C506.469 18.9766 506.93 19.3828 506.93 20.1172C506.93 20.9062 506.438 21.2891 505.414 21.2891H503.703V18.9766ZM503.703 22.3828H505.524C506.711 22.3828 507.282 22.7891 507.282 23.6328C507.282 24.4531 506.75 24.8984 505.766 24.8984H503.703V22.3828ZM515.586 23.6719C515.36 24.4375 514.602 24.9609 513.571 24.9609C512.11 24.9609 511.196 23.9375 511.196 22.3828V22.3047H517.024V21.7891C517.024 19.3281 515.672 17.7344 513.477 17.7344C511.235 17.7344 509.797 19.4453 509.797 21.9688C509.797 24.5234 511.211 26.1406 513.539 26.1406C515.313 26.1406 516.688 25.0938 516.922 23.6719H515.586ZM513.453 18.9141C514.735 18.9141 515.586 19.8828 515.618 21.2422H511.203C511.289 19.8906 512.18 18.9141 513.453 18.9141ZM522.5 17.7344C521.321 17.7344 520.375 18.3359 519.875 19.25H519.844V17.875H518.555V28.7109H519.914V24.6797H519.946C520.43 25.5703 521.368 26.1406 522.532 26.1406C524.578 26.1406 525.977 24.4844 525.977 21.9375C525.977 19.3906 524.571 17.7344 522.5 17.7344ZM522.235 24.9453C520.844 24.9453 519.907 23.75 519.907 21.9375C519.907 20.1328 520.844 18.9297 522.235 18.9297C523.68 18.9297 524.586 20.1016 524.586 21.9375C524.586 23.7812 523.68 24.9453 522.235 24.9453ZM532.836 26H534.196V17.875H532.836V21.2266H528.86V17.875H527.5V26H528.86V22.3438H532.836V26ZM541.508 23.6719C541.282 24.4375 540.524 24.9609 539.493 24.9609C538.032 24.9609 537.118 23.9375 537.118 22.3828V22.3047H542.946V21.7891C542.946 19.3281 541.594 17.7344 539.399 17.7344C537.157 17.7344 535.719 19.4453 535.719 21.9688C535.719 24.5234 537.133 26.1406 539.461 26.1406C541.235 26.1406 542.61 25.0938 542.844 23.6719H541.508ZM539.375 18.9141C540.657 18.9141 541.508 19.8828 541.539 21.2422H537.125C537.211 19.8906 538.102 18.9141 539.375 18.9141ZM544.469 26H554.5V17.875H553.141V24.8828H550.164V17.875H548.805V24.8828H545.828V17.875H544.469V26ZM556.407 26H559.289C561.149 26 562.344 24.9297 562.344 23.2344C562.344 21.5391 561.149 20.4688 559.289 20.4688H557.766V17.875H556.407V26ZM559.266 21.5859C560.313 21.5859 561 22.2344 561 23.2344C561 24.2266 560.321 24.8828 559.266 24.8828H557.766V21.5859H559.266ZM570.586 20.5391C570.414 19.0781 569.203 17.7344 567.172 17.7344C564.93 17.7344 563.438 19.375 563.438 21.9375C563.438 24.5547 564.938 26.1406 567.188 26.1406C569.032 26.1406 570.391 25 570.602 23.3828H569.266C569.032 24.3594 568.305 24.9453 567.196 24.9453C565.789 24.9453 564.821 23.8281 564.821 21.9375C564.821 20.0938 565.774 18.9297 567.18 18.9297C568.375 18.9297 569.063 19.6562 569.258 20.5391H570.586ZM576.461 26H577.821V17.875H574.914C573.047 17.875 571.844 18.8984 571.844 20.5703C571.844 21.6875 572.539 22.5312 573.688 22.8594L571.422 26H572.993L575.055 23.1094H576.461V26ZM574.922 21.9922C573.875 21.9922 573.196 21.3906 573.196 20.5469C573.196 19.5703 573.868 18.9922 574.922 18.9922H576.461V21.9922H574.922ZM579.219 17.6719H580.555C580.641 16.5547 581.391 15.8594 582.571 15.8594C583.735 15.8594 584.485 16.5703 584.485 17.5391C584.485 18.375 584.133 18.8672 583.227 19.4219C582.157 20.0625 581.657 20.7656 581.664 21.7969V22.5156H583.032V22.0078C583.032 21.1875 583.313 20.75 584.305 20.1641C585.305 19.5625 585.938 18.6953 585.938 17.4688C585.938 15.8594 584.594 14.6406 582.625 14.6406C580.43 14.6406 579.305 15.9922 579.219 17.6719ZM582.352 26.0781C582.86 26.0781 583.243 25.6875 583.243 25.1875C583.243 24.6797 582.86 24.2969 582.352 24.2969C581.852 24.2969 581.461 24.6797 581.461 25.1875C581.461 25.6875 581.852 26.0781 582.352 26.0781Z" fill="white"/>
<line x1="0.996704" y1="41.0845" x2="600.997" y2="41.0845" stroke="white"/>
<line x1="1.00085" y1="110.5" x2="601.001" y2="110.5" stroke="white"/>
<line x1="1.00085" y1="0.5" x2="601.001" y2="0.5" stroke="white"/>
</svg>
