<svg width="600" height="111" viewBox="0 0 600 111" fill="none" xmlns="http://www.w3.org/2000/svg">
<path d="M540.139 76.6216H545.395V51.2563H540.121L533.565 55.8091V60.52L540.034 56.1255H540.139V76.6216Z" fill="white"/>
<path d="M250.662 76.6216V64.0181H250.786L255.655 75.5669H259.205L264.092 64.0181H264.215V76.6216H269.032V57.7778H262.457L257.536 70.0825H257.412L252.491 57.7778H245.846V76.6216H250.662ZM285.08 76.6216H290.213V57.7778H285.08V65.02H277.873V57.7778H272.741V76.6216H277.873V68.9048H285.08V76.6216ZM302.5 77.0259C308.196 77.0259 311.834 73.3872 311.834 67.1821C311.834 61.0649 308.161 57.3735 302.5 57.3735C296.858 57.3735 293.166 61.0825 293.166 67.1821C293.166 73.3696 296.805 77.0259 302.5 77.0259ZM302.5 73.106C299.987 73.106 298.387 70.979 298.387 67.1997C298.387 63.4556 300.004 61.2935 302.5 61.2935C305.014 61.2935 306.631 63.4556 306.631 67.1997C306.631 70.979 305.014 73.106 302.5 73.106ZM327.918 61.645V57.7778H314.787V76.6216H319.92V61.645H327.918ZM339.133 77.0259C344.828 77.0259 348.467 73.3872 348.467 67.1821C348.467 61.0649 344.793 57.3735 339.133 57.3735C333.491 57.3735 329.799 61.0825 329.799 67.1821C329.799 73.3696 333.438 77.0259 339.133 77.0259ZM339.133 73.106C336.619 73.106 335.02 70.979 335.02 67.1997C335.02 63.4556 336.637 61.2935 339.133 61.2935C341.647 61.2935 343.264 63.4556 343.264 67.1997C343.264 70.979 341.647 73.106 339.133 73.106Z" fill="white"/>
<path d="M155.292 78.1752C161.11 78.1752 165.1 74.5365 165.1 69.1752C165.1 64.3412 161.638 60.8607 156.804 60.8607C154.237 60.8607 152.145 61.8978 151.091 63.6029H150.985L151.6 56.4662H163.571V52.2474H147.382L146.222 67.1361H150.845C151.706 65.6068 153.288 64.6576 155.327 64.6576C158.104 64.6576 160.038 66.5736 160.038 69.2982C160.038 72.058 158.104 73.974 155.309 73.974C152.866 73.974 150.985 72.5326 150.686 70.3353H145.782C145.923 74.9408 149.86 78.1752 155.292 78.1752ZM177.792 78.1752C183.61 78.1752 187.6 74.5365 187.6 69.1752C187.6 64.3412 184.138 60.8607 179.304 60.8607C176.737 60.8607 174.645 61.8978 173.591 63.6029H173.485L174.1 56.4662H186.071V52.2474H169.882L168.722 67.1361H173.345C174.206 65.6068 175.788 64.6576 177.827 64.6576C180.604 64.6576 182.538 66.5736 182.538 69.2982C182.538 72.058 180.604 73.974 177.809 73.974C175.366 73.974 173.485 72.5326 173.186 70.3353H168.282C168.423 74.9408 172.36 78.1752 177.792 78.1752Z" fill="white"/>
<path d="M406.139 77.6127H411.395V52.2474H406.121L399.565 56.8002V61.5111L406.034 57.1166H406.139V77.6127ZM427.11 78.1752C433.543 78.1752 437.446 73.0599 437.446 64.8685C437.446 56.6771 433.508 51.6674 427.11 51.6674C420.711 51.6674 416.756 56.6947 416.756 64.8861C416.756 73.0951 420.676 78.1752 427.11 78.1752ZM427.11 73.9213C423.981 73.9213 422.153 70.7045 422.153 64.8861C422.153 59.1205 424.016 55.9213 427.11 55.9213C430.221 55.9213 432.049 59.1029 432.049 64.8861C432.049 70.7045 430.239 73.9213 427.11 73.9213Z" fill="white"/>
<path d="M21.1391 76.6216H26.3949V51.2563H21.1215L14.5649 55.8091V60.52L21.0336 56.1255H21.1391V76.6216ZM41.8285 77.1841C47.6469 77.1841 51.6371 73.5454 51.6371 68.1841C51.6371 63.3501 48.1742 59.8696 43.3402 59.8696C40.7738 59.8696 38.682 60.9067 37.6274 62.6118H37.5219L38.1371 55.4751H50.1078V51.2563H33.9184L32.7582 66.145H37.3813C38.2426 64.6157 39.8246 63.6665 41.8637 63.6665C44.641 63.6665 46.5746 65.5825 46.5746 68.3071C46.5746 71.0669 44.641 72.9829 41.8461 72.9829C39.4027 72.9829 37.5219 71.5415 37.2231 69.3442H32.3188C32.4594 73.9497 36.3969 77.1841 41.8285 77.1841ZM64.6098 77.1841C71.0434 77.1841 74.9457 72.0688 74.9457 63.8774C74.9457 55.686 71.0082 50.6763 64.6098 50.6763C58.2113 50.6763 54.2563 55.7036 54.2563 63.895C54.2563 72.104 58.1762 77.1841 64.6098 77.1841ZM64.6098 72.9302C61.4809 72.9302 59.6527 69.7134 59.6527 63.895C59.6527 58.1294 61.516 54.9302 64.6098 54.9302C67.7211 54.9302 69.5492 58.1118 69.5492 63.895C69.5492 69.7134 67.7387 72.9302 64.6098 72.9302Z" fill="white"/>
<path d="M387.591 100.216V95.3148H387.639L389.533 99.806H390.913L392.814 95.3148H392.862V100.216H394.735V92.8881H392.178L390.264 97.6732H390.216L388.302 92.8881H385.718V100.216H387.591ZM398.857 96.7025L399 94.392H400.846V100.216H402.842V92.8881H397.285L397.079 96.5726C397.018 97.7279 396.806 98.5756 396.109 98.5756C395.91 98.5756 395.76 98.5482 395.678 98.5277V100.209C395.781 100.244 396.006 100.298 396.314 100.298C398.125 100.298 398.727 98.8763 398.857 96.7025ZM408.55 92.7719C407.491 92.7719 406.677 93.3051 406.274 94.1664H406.24V92.8881H404.271V102.609H406.267V98.9857H406.308C406.691 99.8129 407.511 100.332 408.577 100.332C410.41 100.332 411.544 98.9105 411.544 96.5521C411.544 94.1869 410.403 92.7719 408.55 92.7719ZM407.873 98.726C406.896 98.726 406.26 97.8783 406.253 96.5521C406.26 95.2396 406.903 94.3715 407.873 94.3715C408.871 94.3715 409.5 95.226 409.5 96.5521C409.5 97.8851 408.878 98.726 407.873 98.726ZM413.814 102.11V100.216H418.743V102.11H420.561V98.7054H419.474V92.8881H413.609L413.369 96.5726C413.301 97.5638 413.096 98.4047 412.563 98.7054H412.002V102.11H413.814ZM417.485 98.7054H414.593V98.6508C414.921 98.1586 415.072 97.4818 415.126 96.7025L415.29 94.3851H417.485V98.7054ZM422.933 100.298C423.541 100.298 424.034 99.806 424.034 99.1976C424.034 98.5824 423.541 98.097 422.933 98.097C422.318 98.097 421.832 98.5824 421.832 99.1976C421.832 99.806 422.318 100.298 422.933 100.298ZM428.785 102.11V100.216H433.713V102.11H435.532V98.7054H434.445V92.8881H428.579L428.34 96.5726C428.272 97.5638 428.067 98.4047 427.534 98.7054H426.973V102.11H428.785ZM432.455 98.7054H429.564V98.6508C429.892 98.1586 430.042 97.4818 430.097 96.7025L430.261 94.3851H432.455V98.7054ZM439.729 100.373C441.944 100.373 443.359 98.9584 443.359 96.5453C443.359 94.1664 441.93 92.7308 439.729 92.7308C437.535 92.7308 436.099 94.1732 436.099 96.5453C436.099 98.9515 437.514 100.373 439.729 100.373ZM439.729 98.849C438.751 98.849 438.129 98.0219 438.129 96.5521C438.129 95.0961 438.758 94.2552 439.729 94.2552C440.706 94.2552 441.335 95.0961 441.335 96.5521C441.335 98.0219 440.706 98.849 439.729 98.849ZM446.941 96.7025L447.084 94.392H448.93V100.216H450.926V92.8881H445.368L445.163 96.5726C445.102 97.7279 444.89 98.5756 444.193 98.5756C443.994 98.5756 443.844 98.5482 443.762 98.5277V100.209C443.865 100.244 444.09 100.298 444.398 100.298C446.209 100.298 446.811 98.8763 446.941 96.7025Z" fill="white"/>
<path d="M29.9486 102.11V100.216H34.8773V102.11H36.6957V98.7054H35.6088V92.8881H29.7435L29.5043 96.5726C29.4359 97.5638 29.2308 98.4047 28.6976 98.7054H28.1371V102.11H29.9486ZM33.6195 98.7054H30.7279V98.6508C31.056 98.1586 31.2064 97.4818 31.2611 96.7025L31.4252 94.3851H33.6195V98.7054ZM42.39 100.216H44.3861V92.8881H42.39V95.7045H39.5873V92.8881H37.5912V100.216H39.5873V97.2152H42.39V100.216ZM50.6547 97.974C50.4769 98.5345 49.9164 98.8969 49.1781 98.8969C48.1664 98.8969 47.4965 98.1791 47.4965 97.1332V97.0101H52.5482V96.4017C52.5482 94.1732 51.2015 92.7308 49.0756 92.7308C46.9086 92.7308 45.5345 94.2484 45.5345 96.5863C45.5345 98.931 46.8881 100.373 49.1439 100.373C50.9554 100.373 52.2679 99.4095 52.4867 97.974H50.6547ZM49.0961 94.2074C49.9847 94.2074 50.5931 94.85 50.6273 95.7865H47.5238C47.5853 94.8705 48.2211 94.2074 49.0961 94.2074ZM54.7015 89.7504C54.722 90.9945 55.6381 91.9584 57.1556 91.9584C58.6664 91.9584 59.5824 90.9945 59.6029 89.7504H58.3588C58.3451 90.4408 57.9008 90.9672 57.1556 90.9672C56.4037 90.9672 55.9593 90.4408 55.9457 89.7504H54.7015ZM55.6517 100.216L58.557 95.5814H58.6117V100.216H60.5736V92.8881H58.6185L55.7133 97.4613H55.6586V92.8881H53.6967V100.216H55.6517Z" fill="white"/>
<path d="M143.591 100.216V95.3148H143.639L145.533 99.806H146.913L148.814 95.3148H148.862V100.216H150.735V92.8881H148.178L146.264 97.6732H146.216L144.302 92.8881H141.718V100.216H143.591ZM154.857 96.7025L155 94.392H156.846V100.216H158.842V92.8881H153.285L153.079 96.5726C153.018 97.7279 152.806 98.5756 152.109 98.5756C151.91 98.5756 151.76 98.5482 151.678 98.5277V100.209C151.781 100.244 152.006 100.298 152.314 100.298C154.125 100.298 154.727 98.8763 154.857 96.7025ZM165.083 100.216H167.079V92.8881H165.083V95.7045H162.281V92.8881H160.285V100.216H162.281V97.2152H165.083V100.216ZM169.745 100.298C170.354 100.298 170.846 99.806 170.846 99.1976C170.846 98.5824 170.354 98.097 169.745 98.097C169.13 98.097 168.645 98.5824 168.645 99.1976C168.645 99.806 169.13 100.298 169.745 100.298ZM176.417 97.0717L178.885 100.216H181.298L178.201 96.2855L181.127 92.8881H178.844L176.417 95.8344H176.363V92.8881H174.367V100.216H176.363V97.0717H176.417ZM183.964 100.216V95.3148H184.012L185.906 99.806H187.286L189.187 95.3148H189.235V100.216H191.108V92.8881H188.551L186.637 97.6732H186.589L184.675 92.8881H182.091V100.216H183.964Z" fill="white"/>
<path d="M285.12 100.216V95.3148H285.168L287.062 99.806H288.443L290.343 95.3148H290.391V100.216H292.264V92.8881H289.707L287.793 97.6732H287.745L285.831 92.8881H283.247V100.216H285.12ZM295.661 100.216L298.567 95.5814H298.621V100.216H300.583V92.8881H298.628L295.723 97.4613H295.668V92.8881H293.706V100.216H295.661ZM306.818 100.216H308.814V92.8881H306.818V95.7045H304.015V92.8881H302.019V100.216H304.015V97.2152H306.818V100.216Z" fill="white"/>
<path d="M539.154 96.6537C540.779 96.6537 541.841 95.5131 541.841 93.7006C541.841 91.8724 540.771 90.7709 539.154 90.7709C537.529 90.7709 536.458 91.8724 536.458 93.7084C536.458 95.5209 537.521 96.6537 539.154 96.6537ZM540.13 102.216L547.771 90.9427H546.083L538.435 102.216H540.13ZM539.154 95.3334C538.529 95.3334 538.107 94.7943 538.107 93.7084C538.107 92.6068 538.529 92.099 539.154 92.099C539.779 92.099 540.193 92.6068 540.193 93.7084C540.193 94.7943 539.771 95.3334 539.154 95.3334ZM547.06 102.38C548.685 102.38 549.747 101.24 549.747 99.4271C549.747 97.5912 548.677 96.4896 547.06 96.4896C545.435 96.4896 544.365 97.599 544.365 99.4271C544.365 101.247 545.427 102.38 547.06 102.38ZM547.06 101.052C546.435 101.052 546.013 100.521 546.013 99.4271C546.013 98.3256 546.435 97.8177 547.06 97.8177C547.685 97.8177 548.099 98.3334 548.099 99.4271C548.099 100.521 547.677 101.052 547.06 101.052Z" fill="white"/>
<path d="M5.53237 26.9009C7.25893 26.9009 8.32143 26.0024 8.32143 24.5649C8.32143 23.5728 7.64956 22.8462 6.62612 22.7056V22.6431C7.37612 22.4868 7.96206 21.7134 7.96206 20.8774C7.96206 19.5728 7.03237 18.7759 5.50893 18.7759H2.03237V26.9009H5.53237ZM3.39174 19.8774H5.30581C6.15737 19.8774 6.61831 20.2837 6.61831 21.0181C6.61831 21.8071 6.12612 22.1899 5.10268 22.1899H3.39174V19.8774ZM3.39174 23.2837H5.21206C6.39956 23.2837 6.96987 23.6899 6.96987 24.5337C6.96987 25.354 6.43862 25.7993 5.45424 25.7993H3.39174V23.2837ZM13.8292 18.6353C12.6496 18.6353 11.7042 19.2368 11.2042 20.1509H11.173V18.7759H9.88393V29.6118H11.2433V25.5806H11.2746C11.7589 26.4712 12.6964 27.0415 13.8605 27.0415C15.9074 27.0415 17.3058 25.3853 17.3058 22.8384C17.3058 20.2915 15.8996 18.6353 13.8292 18.6353ZM13.5636 25.8462C12.173 25.8462 11.2355 24.6509 11.2355 22.8384C11.2355 21.0337 12.173 19.8306 13.5636 19.8306C15.0089 19.8306 15.9152 21.0024 15.9152 22.8384C15.9152 24.6821 15.0089 25.8462 13.5636 25.8462ZM24.2277 24.5728C24.0011 25.3384 23.2433 25.8618 22.2121 25.8618C20.7511 25.8618 19.8371 24.8384 19.8371 23.2837V23.2056H25.6652V22.6899C25.6652 20.229 24.3136 18.6353 22.1183 18.6353C19.8761 18.6353 18.4386 20.3462 18.4386 22.8696C18.4386 25.4243 19.8527 27.0415 22.1808 27.0415C23.9542 27.0415 25.3292 25.9946 25.5636 24.5728H24.2277ZM22.0949 19.8149C23.3761 19.8149 24.2277 20.7837 24.2589 22.1431H19.8449C19.9308 20.7915 20.8214 19.8149 22.0949 19.8149ZM28.5324 26.9009V21.1353H28.5871L31.2121 26.6665H32.2511L34.8761 21.1353H34.9308V26.9009H36.2824V18.7759H34.6964L31.7902 25.104H31.7277L28.8371 18.7759H27.1886V26.9009H28.5324ZM42.6496 26.9009H44.0089V18.7759H41.1027C39.2355 18.7759 38.0324 19.7993 38.0324 21.4712C38.0324 22.5884 38.7277 23.4321 39.8761 23.7603L37.6105 26.9009H39.1808L41.2433 24.0103H42.6496V26.9009ZM41.1105 22.8931C40.0636 22.8931 39.3839 22.2915 39.3839 21.4478C39.3839 20.4712 40.0558 19.8931 41.1105 19.8931H42.6496V22.8931H41.1105ZM52.7042 26.9009C54.4308 26.9009 55.4933 26.0024 55.4933 24.5649C55.4933 23.5728 54.8214 22.8462 53.798 22.7056V22.6431C54.548 22.4868 55.1339 21.7134 55.1339 20.8774C55.1339 19.5728 54.2042 18.7759 52.6808 18.7759H49.2042V26.9009H52.7042ZM50.5636 19.8774H52.4777C53.3292 19.8774 53.7902 20.2837 53.7902 21.0181C53.7902 21.8071 53.298 22.1899 52.2746 22.1899H50.5636V19.8774ZM50.5636 23.2837H52.3839C53.5714 23.2837 54.1417 23.6899 54.1417 24.5337C54.1417 25.354 53.6105 25.7993 52.6261 25.7993H50.5636V23.2837ZM65.5871 26.9009H66.9542V18.7759H60.3292V26.9009H61.6886V19.8931H65.5871V26.9009ZM69.548 29.9399C71.0167 29.9399 71.6886 29.3696 72.3839 27.4712L75.5792 18.7759H74.1496L71.8996 25.5415H71.8761L69.6261 18.7759H68.173L71.173 26.9087L70.9855 27.479C70.673 28.4243 70.2511 28.7915 69.4933 28.7915C69.3214 28.7915 69.1105 28.7837 68.9621 28.7524V29.8931C69.1105 29.9243 69.3839 29.9399 69.548 29.9399ZM82.7433 18.7759H76.1496V19.8931H78.7667V26.9009H80.1261V19.8931H82.7433V18.7759ZM85.3449 26.9009L89.3917 20.8618H89.4542V26.9009H90.8136V18.7759H89.4699L85.423 24.8149H85.3605V18.7759H84.0011V26.9009H85.3449Z" fill="white"/>
<path d="M130.941 18.6353C129.761 18.6353 128.816 19.2368 128.316 20.1509H128.284V18.7759H126.995V29.6118H128.355V25.5806H128.386C128.87 26.4712 129.808 27.0415 130.972 27.0415C133.019 27.0415 134.417 25.3853 134.417 22.8384C134.417 20.2915 133.011 18.6353 130.941 18.6353ZM130.675 25.8462C129.284 25.8462 128.347 24.6509 128.347 22.8384C128.347 21.0337 129.284 19.8306 130.675 19.8306C132.12 19.8306 133.026 21.0024 133.026 22.8384C133.026 24.6821 132.12 25.8462 130.675 25.8462ZM138.323 27.0415C139.417 27.0415 140.448 26.4321 140.933 25.5024H140.964V26.9009H142.253V21.2837C142.253 19.6665 141.05 18.6353 139.144 18.6353C137.222 18.6353 136.019 19.7134 135.925 21.1196H137.237C137.409 20.3228 138.066 19.8306 139.112 19.8306C140.237 19.8306 140.894 20.4243 140.894 21.4165V22.0962L138.566 22.229C136.691 22.3384 135.62 23.2134 135.62 24.604C135.62 26.0649 136.706 27.0415 138.323 27.0415ZM138.628 25.8853C137.651 25.8853 137.003 25.3774 137.003 24.604C137.003 23.8384 137.628 23.354 138.722 23.2837L140.894 23.1509V23.8149C140.894 24.9868 139.909 25.8853 138.628 25.8853ZM150.886 21.4399C150.714 19.979 149.503 18.6353 147.472 18.6353C145.23 18.6353 143.737 20.2759 143.737 22.8384C143.737 25.4556 145.237 27.0415 147.487 27.0415C149.331 27.0415 150.691 25.9009 150.901 24.2837H149.566C149.331 25.2603 148.605 25.8462 147.495 25.8462C146.089 25.8462 145.12 24.729 145.12 22.8384C145.12 20.9946 146.073 19.8306 147.48 19.8306C148.675 19.8306 149.362 20.5571 149.558 21.4399H150.886ZM159.058 21.4399C158.886 19.979 157.675 18.6353 155.644 18.6353C153.401 18.6353 151.909 20.2759 151.909 22.8384C151.909 25.4556 153.409 27.0415 155.659 27.0415C157.503 27.0415 158.862 25.9009 159.073 24.2837H157.737C157.503 25.2603 156.776 25.8462 155.667 25.8462C154.261 25.8462 153.292 24.729 153.292 22.8384C153.292 20.9946 154.245 19.8306 155.651 19.8306C156.847 19.8306 157.534 20.5571 157.73 21.4399H159.058ZM166.261 18.7759H159.667V19.8931H162.284V26.9009H163.644V19.8931H166.261V18.7759ZM170.737 27.0415C172.98 27.0415 174.495 25.4243 174.495 22.8384C174.495 20.2446 172.98 18.6353 170.737 18.6353C168.487 18.6353 166.972 20.2446 166.972 22.8384C166.972 25.4243 168.487 27.0415 170.737 27.0415ZM170.737 25.8462C169.3 25.8462 168.355 24.7524 168.355 22.8384C168.355 20.9243 169.3 19.8306 170.737 19.8306C172.175 19.8306 173.112 20.9243 173.112 22.8384C173.112 24.7524 172.175 25.8462 170.737 25.8462ZM180.401 26.9009H181.761V18.7759H178.855C176.987 18.7759 175.784 19.7993 175.784 21.4712C175.784 22.5884 176.48 23.4321 177.628 23.7603L175.362 26.9009H176.933L178.995 24.0103H180.401V26.9009ZM178.862 22.8931C177.816 22.8931 177.136 22.2915 177.136 21.4478C177.136 20.4712 177.808 19.8931 178.862 19.8931H180.401V22.8931H178.862ZM189.011 26.9009H190.37V18.7759H189.011V22.1274H185.034V18.7759H183.675V26.9009H185.034V23.2446H189.011V26.9009ZM193.628 26.9009L197.675 20.8618H197.737V26.9009H199.097V18.7759H197.753L193.706 24.8149H193.644V18.7759H192.284V26.9009H193.628ZM206.401 24.5728C206.175 25.3384 205.417 25.8618 204.386 25.8618C202.925 25.8618 202.011 24.8384 202.011 23.2837V23.2056H207.839V22.6899C207.839 20.229 206.487 18.6353 204.292 18.6353C202.05 18.6353 200.612 20.3462 200.612 22.8696C200.612 25.4243 202.026 27.0415 204.355 27.0415C206.128 27.0415 207.503 25.9946 207.737 24.5728H206.401ZM204.269 19.8149C205.55 19.8149 206.401 20.7837 206.433 22.1431H202.019C202.105 20.7915 202.995 19.8149 204.269 19.8149Z" fill="white"/>
<path d="M389.146 21.4399C388.974 19.979 387.763 18.6353 385.732 18.6353C383.49 18.6353 381.998 20.2759 381.998 22.8384C381.998 25.4556 383.498 27.0415 385.748 27.0415C387.591 27.0415 388.951 25.9009 389.162 24.2837H387.826C387.591 25.2603 386.865 25.8462 385.755 25.8462C384.349 25.8462 383.38 24.729 383.38 22.8384C383.38 20.9946 384.334 19.8306 385.74 19.8306C386.935 19.8306 387.623 20.5571 387.818 21.4399H389.146ZM396.349 18.7759H389.755V19.8931H392.373V26.9009H393.732V19.8931H396.349V18.7759ZM400.826 27.0415C403.068 27.0415 404.584 25.4243 404.584 22.8384C404.584 20.2446 403.068 18.6353 400.826 18.6353C398.576 18.6353 397.06 20.2446 397.06 22.8384C397.06 25.4243 398.576 27.0415 400.826 27.0415ZM400.826 25.8462C399.388 25.8462 398.443 24.7524 398.443 22.8384C398.443 20.9243 399.388 19.8306 400.826 19.8306C402.263 19.8306 403.201 20.9243 403.201 22.8384C403.201 24.7524 402.263 25.8462 400.826 25.8462ZM407.451 26.9009L411.498 20.8618H411.56V26.9009H412.919V18.7759H411.576L407.529 24.8149H407.466V18.7759H406.107V26.9009H407.451ZM416.169 26.9009V21.1353H416.224L418.849 26.6665H419.888L422.513 21.1353H422.568V26.9009H423.919V18.7759H422.334L419.427 25.104H419.365L416.474 18.7759H414.826V26.9009H416.169ZM429.201 27.0415C431.443 27.0415 432.959 25.4243 432.959 22.8384C432.959 20.2446 431.443 18.6353 429.201 18.6353C426.951 18.6353 425.435 20.2446 425.435 22.8384C425.435 25.4243 426.951 27.0415 429.201 27.0415ZM429.201 25.8462C427.763 25.8462 426.818 24.7524 426.818 22.8384C426.818 20.9243 427.763 19.8306 429.201 19.8306C430.638 19.8306 431.576 20.9243 431.576 22.8384C431.576 24.7524 430.638 25.8462 429.201 25.8462ZM441.24 21.4399C441.068 19.979 439.857 18.6353 437.826 18.6353C435.584 18.6353 434.091 20.2759 434.091 22.8384C434.091 25.4556 435.591 27.0415 437.841 27.0415C439.685 27.0415 441.044 25.9009 441.255 24.2837H439.919C439.685 25.2603 438.959 25.8462 437.849 25.8462C436.443 25.8462 435.474 24.729 435.474 22.8384C435.474 20.9946 436.427 19.8306 437.834 19.8306C439.029 19.8306 439.716 20.5571 439.912 21.4399H441.24ZM448.443 18.7759H441.849V19.8931H444.466V26.9009H445.826V19.8931H448.443V18.7759ZM449.701 26.9009H452.584C454.443 26.9009 455.638 25.8306 455.638 24.1353C455.638 22.4399 454.443 21.3696 452.584 21.3696H451.06V18.7759H449.701V26.9009ZM452.56 22.4868C453.607 22.4868 454.294 23.1353 454.294 24.1353C454.294 25.1274 453.615 25.7837 452.56 25.7837H451.06V22.4868H452.56Z" fill="white"/>
<path d="M248.6 26.9009C250.326 26.9009 251.389 26.0024 251.389 24.5649C251.389 23.5728 250.717 22.8462 249.694 22.7056V22.6431C250.444 22.4868 251.029 21.7134 251.029 20.8774C251.029 19.5728 250.1 18.7759 248.576 18.7759H245.1V26.9009H248.6ZM246.459 19.8774H248.373C249.225 19.8774 249.686 20.2837 249.686 21.0181C249.686 21.8071 249.194 22.1899 248.17 22.1899H246.459V19.8774ZM246.459 23.2837H248.279C249.467 23.2837 250.037 23.6899 250.037 24.5337C250.037 25.354 249.506 25.7993 248.522 25.7993H246.459V23.2837ZM261.561 26.9009H262.92V18.7759H261.561V22.1274H257.584V18.7759H256.225V26.9009H257.584V23.2446H261.561V26.9009ZM270.233 24.5728C270.006 25.3384 269.248 25.8618 268.217 25.8618C266.756 25.8618 265.842 24.8384 265.842 23.2837V23.2056H271.67V22.6899C271.67 20.229 270.319 18.6353 268.123 18.6353C265.881 18.6353 264.444 20.3462 264.444 22.8696C264.444 25.4243 265.858 27.0415 268.186 27.0415C269.959 27.0415 271.334 25.9946 271.569 24.5728H270.233ZM268.1 19.8149C269.381 19.8149 270.233 20.7837 270.264 22.1431H265.85C265.936 20.7915 266.826 19.8149 268.1 19.8149ZM276.694 26.9009C278.42 26.9009 279.483 26.0024 279.483 24.5649C279.483 23.5728 278.811 22.8462 277.787 22.7056V22.6431C278.537 22.4868 279.123 21.7134 279.123 20.8774C279.123 19.5728 278.194 18.7759 276.67 18.7759H273.194V26.9009H276.694ZM274.553 19.8774H276.467C277.319 19.8774 277.779 20.2837 277.779 21.0181C277.779 21.8071 277.287 22.1899 276.264 22.1899H274.553V19.8774ZM274.553 23.2837H276.373C277.561 23.2837 278.131 23.6899 278.131 24.5337C278.131 25.354 277.6 25.7993 276.615 25.7993H274.553V23.2837ZM286.436 24.5728C286.209 25.3384 285.451 25.8618 284.42 25.8618C282.959 25.8618 282.045 24.8384 282.045 23.2837V23.2056H287.873V22.6899C287.873 20.229 286.522 18.6353 284.326 18.6353C282.084 18.6353 280.647 20.3462 280.647 22.8696C280.647 25.4243 282.061 27.0415 284.389 27.0415C286.162 27.0415 287.537 25.9946 287.772 24.5728H286.436ZM284.303 19.8149C285.584 19.8149 286.436 20.7837 286.467 22.1431H282.053C282.139 20.7915 283.029 19.8149 284.303 19.8149ZM296.154 21.4399C295.983 19.979 294.772 18.6353 292.74 18.6353C290.498 18.6353 289.006 20.2759 289.006 22.8384C289.006 25.4556 290.506 27.0415 292.756 27.0415C294.6 27.0415 295.959 25.9009 296.17 24.2837H294.834C294.6 25.2603 293.873 25.8462 292.764 25.8462C291.358 25.8462 290.389 24.729 290.389 22.8384C290.389 20.9946 291.342 19.8306 292.748 19.8306C293.944 19.8306 294.631 20.5571 294.826 21.4399H296.154ZM300.944 27.0415C303.186 27.0415 304.701 25.4243 304.701 22.8384C304.701 20.2446 303.186 18.6353 300.944 18.6353C298.694 18.6353 297.178 20.2446 297.178 22.8384C297.178 25.4243 298.694 27.0415 300.944 27.0415ZM300.944 25.8462C299.506 25.8462 298.561 24.7524 298.561 22.8384C298.561 20.9243 299.506 19.8306 300.944 19.8306C302.381 19.8306 303.319 20.9243 303.319 22.8384C303.319 24.7524 302.381 25.8462 300.944 25.8462ZM307.569 26.9009V21.1353H307.623L310.248 26.6665H311.287L313.912 21.1353H313.967V26.9009H315.319V18.7759H313.733L310.826 25.104H310.764L307.873 18.7759H306.225V26.9009H307.569ZM320.6 27.0415C322.842 27.0415 324.358 25.4243 324.358 22.8384C324.358 20.2446 322.842 18.6353 320.6 18.6353C318.35 18.6353 316.834 20.2446 316.834 22.8384C316.834 25.4243 318.35 27.0415 320.6 27.0415ZM320.6 25.8462C319.162 25.8462 318.217 24.7524 318.217 22.8384C318.217 20.9243 319.162 19.8306 320.6 19.8306C322.037 19.8306 322.975 20.9243 322.975 22.8384C322.975 24.7524 322.037 25.8462 320.6 25.8462ZM332.639 21.4399C332.467 19.979 331.256 18.6353 329.225 18.6353C326.983 18.6353 325.49 20.2759 325.49 22.8384C325.49 25.4556 326.99 27.0415 329.24 27.0415C331.084 27.0415 332.444 25.9009 332.654 24.2837H331.319C331.084 25.2603 330.358 25.8462 329.248 25.8462C327.842 25.8462 326.873 24.729 326.873 22.8384C326.873 20.9946 327.826 19.8306 329.233 19.8306C330.428 19.8306 331.115 20.5571 331.311 21.4399H332.639ZM339.842 18.7759H333.248V19.8931H335.865V26.9009H337.225V19.8931H339.842V18.7759ZM342.444 26.9009L346.49 20.8618H346.553V26.9009H347.912V18.7759H346.569L342.522 24.8149H342.459V18.7759H341.1V26.9009H342.444Z" fill="white"/>
<path d="M504.939 26.9009C506.665 26.9009 507.728 26.0024 507.728 24.5649C507.728 23.5728 507.056 22.8462 506.032 22.7056V22.6431C506.782 22.4868 507.368 21.7134 507.368 20.8774C507.368 19.5728 506.439 18.7759 504.915 18.7759H501.439V26.9009H504.939ZM502.798 19.8774H504.712C505.564 19.8774 506.025 20.2837 506.025 21.0181C506.025 21.8071 505.532 22.1899 504.509 22.1899H502.798V19.8774ZM502.798 23.2837H504.618C505.806 23.2837 506.376 23.6899 506.376 24.5337C506.376 25.354 505.845 25.7993 504.861 25.7993H502.798V23.2837ZM514.681 24.5728C514.454 25.3384 513.697 25.8618 512.665 25.8618C511.204 25.8618 510.29 24.8384 510.29 23.2837V23.2056H516.118V22.6899C516.118 20.229 514.767 18.6353 512.572 18.6353C510.329 18.6353 508.892 20.3462 508.892 22.8696C508.892 25.4243 510.306 27.0415 512.634 27.0415C514.407 27.0415 515.782 25.9946 516.017 24.5728H514.681ZM512.548 19.8149C513.829 19.8149 514.681 20.7837 514.712 22.1431H510.298C510.384 20.7915 511.275 19.8149 512.548 19.8149ZM521.595 18.6353C520.415 18.6353 519.47 19.2368 518.97 20.1509H518.939V18.7759H517.65V29.6118H519.009V25.5806H519.04C519.525 26.4712 520.462 27.0415 521.626 27.0415C523.673 27.0415 525.072 25.3853 525.072 22.8384C525.072 20.2915 523.665 18.6353 521.595 18.6353ZM521.329 25.8462C519.939 25.8462 519.001 24.6509 519.001 22.8384C519.001 21.0337 519.939 19.8306 521.329 19.8306C522.775 19.8306 523.681 21.0024 523.681 22.8384C523.681 24.6821 522.775 25.8462 521.329 25.8462ZM531.931 26.9009H533.29V18.7759H531.931V22.1274H527.954V18.7759H526.595V26.9009H527.954V23.2446H531.931V26.9009ZM540.603 24.5728C540.376 25.3384 539.618 25.8618 538.587 25.8618C537.126 25.8618 536.212 24.8384 536.212 23.2837V23.2056H542.04V22.6899C542.04 20.229 540.689 18.6353 538.493 18.6353C536.251 18.6353 534.814 20.3462 534.814 22.8696C534.814 25.4243 536.228 27.0415 538.556 27.0415C540.329 27.0415 541.704 25.9946 541.939 24.5728H540.603ZM538.47 19.8149C539.751 19.8149 540.603 20.7837 540.634 22.1431H536.22C536.306 20.7915 537.197 19.8149 538.47 19.8149ZM543.564 26.9009H553.595V18.7759H552.236V25.7837H549.259V18.7759H547.9V25.7837H544.923V18.7759H543.564V26.9009ZM555.501 26.9009H558.384C560.243 26.9009 561.439 25.8306 561.439 24.1353C561.439 22.4399 560.243 21.3696 558.384 21.3696H556.861V18.7759H555.501V26.9009ZM558.361 22.4868C559.407 22.4868 560.095 23.1353 560.095 24.1353C560.095 25.1274 559.415 25.7837 558.361 25.7837H556.861V22.4868H558.361ZM569.681 21.4399C569.509 19.979 568.298 18.6353 566.267 18.6353C564.025 18.6353 562.532 20.2759 562.532 22.8384C562.532 25.4556 564.032 27.0415 566.282 27.0415C568.126 27.0415 569.486 25.9009 569.697 24.2837H568.361C568.126 25.2603 567.4 25.8462 566.29 25.8462C564.884 25.8462 563.915 24.729 563.915 22.8384C563.915 20.9946 564.868 19.8306 566.275 19.8306C567.47 19.8306 568.157 20.5571 568.353 21.4399H569.681ZM575.556 26.9009H576.915V18.7759H574.009C572.142 18.7759 570.939 19.7993 570.939 21.4712C570.939 22.5884 571.634 23.4321 572.782 23.7603L570.517 26.9009H572.087L574.15 24.0103H575.556V26.9009ZM574.017 22.8931C572.97 22.8931 572.29 22.2915 572.29 21.4478C572.29 20.4712 572.962 19.8931 574.017 19.8931H575.556V22.8931H574.017ZM578.314 18.5728H579.65C579.736 17.4556 580.486 16.7603 581.665 16.7603C582.829 16.7603 583.579 17.4712 583.579 18.4399C583.579 19.2759 583.228 19.7681 582.322 20.3228C581.251 20.9634 580.751 21.6665 580.759 22.6978V23.4165H582.126V22.9087C582.126 22.0884 582.407 21.6509 583.4 21.0649C584.4 20.4634 585.032 19.5962 585.032 18.3696C585.032 16.7603 583.689 15.5415 581.72 15.5415C579.525 15.5415 578.4 16.8931 578.314 18.5728ZM581.447 26.979C581.954 26.979 582.337 26.5884 582.337 26.0884C582.337 25.5806 581.954 25.1978 581.447 25.1978C580.947 25.1978 580.556 25.5806 580.556 26.0884C580.556 26.5884 580.947 26.979 581.447 26.979Z" fill="white"/>
<line x1="0.995057" y1="41.7098" x2="599.997" y2="41.7098" stroke="white"/>
<line x1="0.999208" y1="110.5" x2="600.001" y2="110.5" stroke="white"/>
<line x1="0.999208" y1="0.5" x2="600.001" y2="0.5" stroke="white"/>
</svg>
